<svg width="68" height="70" viewBox="0 0 68 70" fill="none" xmlns="http://www.w3.org/2000/svg">
<path d="M46.2902 23.9148C46.2902 23.6153 46.1713 23.3282 45.9596 23.1164C45.7478 22.9047 45.4607 22.7857 45.1612 22.7857H43.7312C43.56 22.2562 43.3462 21.7415 43.0917 21.2465L44.1044 20.2338C44.2093 20.129 44.2925 20.0046 44.3492 19.8676C44.406 19.7306 44.4352 19.5838 44.4352 19.4355C44.4352 19.2873 44.406 19.1405 44.3492 19.0035C44.2925 18.8665 44.2093 18.7421 44.1044 18.6373L41.2013 15.7342C41.0965 15.6293 40.9721 15.5462 40.8351 15.4894C40.6981 15.4326 40.5513 15.4034 40.4031 15.4034C40.2548 15.4034 40.108 15.4326 39.971 15.4894C39.8341 15.5462 39.7096 15.6293 39.6048 15.7342L38.5921 16.7469C38.0971 16.4925 37.5824 16.2787 37.0529 16.1075V14.6774C37.0529 14.378 36.9339 14.0908 36.7222 13.8791C36.5105 13.6674 36.2233 13.5484 35.9238 13.5484H31.8179C31.5185 13.5484 31.2313 13.6674 31.0196 13.8791C30.8078 14.0908 30.6889 14.378 30.6889 14.6774V16.1075C30.1593 16.2786 29.6446 16.4925 29.1497 16.747L28.1369 15.7342C28.0321 15.6294 27.9077 15.5462 27.7707 15.4894C27.6338 15.4327 27.4869 15.4034 27.3387 15.4034C27.1904 15.4034 27.0436 15.4327 26.9066 15.4894C26.7697 15.5462 26.6452 15.6294 26.5404 15.7342L23.6373 18.6373C23.5325 18.7421 23.4493 18.8666 23.3925 19.0035C23.3358 19.1405 23.3066 19.2873 23.3066 19.4356C23.3066 19.5838 23.3358 19.7306 23.3925 19.8676C23.4493 20.0046 23.5325 20.129 23.6373 20.2338L24.6501 21.2466C24.3957 21.7415 24.1818 22.2563 24.0106 22.7858H22.5806C22.2811 22.7858 21.994 22.9047 21.7822 23.1165C21.5705 23.3282 21.4515 23.6154 21.4515 23.9148V28.0208C21.4515 28.3202 21.5705 28.6074 21.7822 28.8191C21.994 29.0309 22.2811 29.1498 22.5806 29.1498H24.0106C24.1817 29.6793 24.3956 30.1941 24.6501 30.689L23.6374 31.7017C23.5325 31.8065 23.4493 31.931 23.3925 32.068C23.3358 32.2049 23.3066 32.3517 23.3066 32.5C23.3066 32.6483 23.3358 32.7951 23.3925 32.932C23.4493 33.069 23.5325 33.1935 23.6374 33.2983L26.5404 36.2013C26.6453 36.3062 26.7697 36.3894 26.9067 36.4461C27.0436 36.5029 27.1905 36.5321 27.3387 36.5321C27.487 36.5321 27.6338 36.5029 27.7708 36.4461C27.9077 36.3894 28.0322 36.3062 28.137 36.2013L29.1497 35.1886C29.6447 35.443 30.1594 35.6568 30.6889 35.8281V37.2581C30.6889 37.5575 30.8079 37.8447 31.0196 38.0564C31.2313 38.2682 31.5185 38.3871 31.8179 38.3871H35.9239C36.2234 38.3871 36.5105 38.2682 36.7223 38.0564C36.934 37.8447 37.0529 37.5575 37.0529 37.2581V35.828C37.5825 35.6569 38.0972 35.443 38.5921 35.1885L39.6049 36.2013C39.7097 36.3062 39.8341 36.3893 39.9711 36.4461C40.1081 36.5029 40.2549 36.5321 40.4031 36.5321C40.5514 36.5321 40.6982 36.5029 40.8352 36.4461C40.9722 36.3893 41.0966 36.3062 41.2014 36.2013L44.1044 33.2982C44.2093 33.1934 44.2925 33.0689 44.3492 32.932C44.406 32.795 44.4352 32.6482 44.4352 32.4999C44.4352 32.3517 44.406 32.2049 44.3492 32.0679C44.2925 31.9309 44.2093 31.8065 44.1044 31.7017L43.0917 30.6889C43.3461 30.194 43.56 29.6792 43.7312 29.1497H45.1612C45.4607 29.1497 45.7478 29.0308 45.9596 28.8191C46.1713 28.6073 46.2902 28.3201 46.2902 28.0207V23.9148ZM44.0322 26.8917H43.6397C43.1803 26.8952 42.7341 27.0453 42.3661 27.3202C41.9981 27.5951 41.7275 27.9804 41.5939 28.4199C41.4545 28.8575 41.278 29.2824 41.0663 29.69C40.8489 30.0956 40.767 30.56 40.8326 31.0154C40.8982 31.4708 41.1078 31.8932 41.4307 32.221L41.7096 32.4999L40.4031 33.8065L40.1241 33.5275C39.7966 33.2045 39.3742 32.9948 38.9188 32.9293C38.4635 32.8637 37.9991 32.9456 37.5937 33.1631C37.1859 33.3747 36.7608 33.5512 36.323 33.6907C35.8835 33.8243 35.4982 34.0949 35.2233 34.4629C34.9484 34.8309 34.7983 35.2772 34.7949 35.7365V36.129H32.9469V35.7365C32.9435 35.2772 32.7934 34.831 32.5185 34.4629C32.2436 34.0949 31.8583 33.8244 31.4188 33.6907C30.9811 33.5513 30.5562 33.3748 30.1486 33.1631C29.7431 32.9458 29.2787 32.864 28.8233 32.9295C28.3679 32.9951 27.9454 33.2047 27.6177 33.5275L27.3387 33.8065L26.0322 32.4999L26.3111 32.221C26.634 31.8934 26.8436 31.471 26.9091 31.0157C26.9747 30.5604 26.8928 30.096 26.6755 29.6906C26.4639 29.2828 26.2874 28.8577 26.1479 28.4199C26.0143 27.9804 25.7437 27.5951 25.3757 27.3202C25.0077 27.0453 24.5615 26.8952 24.1021 26.8917H23.7096V25.0438H24.1021C24.5615 25.0403 25.0077 24.8902 25.3757 24.6153C25.7437 24.3404 26.0143 23.9551 26.1479 23.5156C26.2873 23.078 26.4638 22.6531 26.6755 22.2455C26.8929 21.84 26.9747 21.3755 26.9092 20.9201C26.8436 20.4647 26.634 20.0423 26.3111 19.7145L26.0322 19.4356L27.3387 18.129L27.6177 18.408C27.9452 18.7311 28.3676 18.9408 28.8229 19.0063C29.2783 19.0719 29.7427 18.9899 30.1481 18.7724C30.5559 18.5608 30.981 18.3843 31.4188 18.2448C31.8582 18.1112 32.2435 17.8406 32.5184 17.4726C32.7933 17.1046 32.9435 16.6583 32.9469 16.199V15.8065H34.7948V16.199C34.7983 16.6583 34.9484 17.1046 35.2233 17.4726C35.4982 17.8406 35.8835 18.1112 36.323 18.2448C36.7606 18.3842 37.1856 18.5607 37.5932 18.7724C37.9987 18.9898 38.4631 19.0717 38.9185 19.0062C39.3739 18.9406 39.7964 18.731 40.1241 18.408L40.4031 18.129L41.7096 19.4356L41.4307 19.7145C41.1078 20.0422 40.8982 20.4645 40.8326 20.9198C40.7671 21.3751 40.8489 21.8395 41.0663 22.2449C41.2779 22.6527 41.4543 23.0779 41.5938 23.5156C41.7275 23.9551 41.998 24.3404 42.3661 24.6153C42.7341 24.8902 43.1803 25.0403 43.6396 25.0438H44.0322V26.8917Z" fill="url(#paint0_linear_29_227)"/>
<path d="M33.8709 19.1935C32.5311 19.1935 31.2213 19.5908 30.1073 20.3352C28.9933 21.0796 28.1251 22.1375 27.6123 23.3754C27.0996 24.6132 26.9655 25.9753 27.2268 27.2893C27.4882 28.6034 28.1334 29.8104 29.0808 30.7578C30.0282 31.7052 31.2352 32.3504 32.5493 32.6118C33.8634 32.8731 35.2254 32.739 36.4632 32.2263C37.7011 31.7136 38.7591 30.8453 39.5034 29.7313C40.2478 28.6173 40.6451 27.3075 40.6451 25.9677C40.6431 24.1717 39.9288 22.4498 38.6588 21.1798C37.3888 19.9098 35.6669 19.1955 33.8709 19.1935ZM33.8709 30.4839C32.9777 30.4839 32.1045 30.219 31.3619 29.7228C30.6192 29.2265 30.0403 28.5212 29.6985 27.696C29.3567 26.8708 29.2673 25.9627 29.4415 25.0867C29.6158 24.2106 30.0459 23.4059 30.6775 22.7744C31.3091 22.1428 32.1138 21.7126 32.9898 21.5384C33.8659 21.3641 34.7739 21.4536 35.5991 21.7954C36.4243 22.1372 37.1297 22.716 37.6259 23.4587C38.1221 24.2014 38.387 25.0745 38.387 25.9677C38.3856 27.1651 37.9094 28.313 37.0627 29.1596C36.2161 30.0063 35.0682 30.4825 33.8709 30.4839Z" fill="url(#paint1_linear_29_227)"/>
<path d="M1.12898 70H66.6129C66.7997 70 66.9836 69.9537 67.1481 69.8651C67.3127 69.7765 67.4526 69.6485 67.5555 69.4925C67.6583 69.3365 67.7208 69.1574 67.7374 68.9713C67.754 68.7852 67.7241 68.5978 67.6504 68.4261L60.8762 52.6197C60.7893 52.4166 60.6446 52.2435 60.4601 52.1219C60.2757 52.0002 60.0596 51.9354 59.8387 51.9355H46.2903V54.1936H59.0944L64.9006 67.7419H2.84127L8.64741 54.1936H21.4516V51.9355H7.90318C7.68224 51.9354 7.46614 52.0002 7.28169 52.1219C7.09725 52.2435 6.95257 52.4166 6.8656 52.6197L0.0914031 68.4261C0.0177517 68.5978 -0.0121252 68.7852 0.00445207 68.9713C0.0210293 69.1574 0.0835422 69.3365 0.186384 69.4925C0.289226 69.6485 0.42918 69.7765 0.593694 69.8651C0.758208 69.9537 0.942137 70 1.12898 70Z" fill="url(#paint2_linear_29_227)"/>
<path d="M32.7419 41.7742H30.4838V48.5484H32.7419V41.7742Z" fill="url(#paint3_linear_29_227)"/>
<path d="M32.7419 50.8065H30.4838V53.0645H32.7419V50.8065Z" fill="url(#paint4_linear_29_227)"/>
<path d="M32.7419 55.3226H30.4838V60.9677H32.7419V55.3226Z" fill="url(#paint5_linear_29_227)"/>
<path d="M37.258 41.7742H34.9999V49.6774H37.258V41.7742Z" fill="url(#paint6_linear_29_227)"/>
<path d="M37.258 51.9355H34.9999V60.9677H37.258V51.9355Z" fill="url(#paint7_linear_29_227)"/>
<path d="M41.7741 44.0322H39.5161V54.1935H41.7741V44.0322Z" fill="url(#paint8_linear_29_227)"/>
<path d="M28.2257 56.4516H25.9677V58.7097H28.2257V56.4516Z" fill="url(#paint9_linear_29_227)"/>
<path d="M28.2257 42.9032H25.9677V54.1935H28.2257V42.9032Z" fill="url(#paint10_linear_29_227)"/>
<path d="M41.7741 56.4516H39.5161V58.7097H41.7741V56.4516Z" fill="url(#paint11_linear_29_227)"/>
<path d="M51.9354 3.38708C51.636 3.38708 51.3488 3.50604 51.1371 3.71777C50.9253 3.92951 50.8064 4.21668 50.8064 4.51612V11.2903C50.8064 11.5897 50.9253 11.8769 51.1371 12.0887C51.3488 12.3004 51.636 12.4193 51.9354 12.4193H55.3225V14.6774H53.0645C52.765 14.6774 52.4778 14.7964 52.2661 15.0081C52.0544 15.2198 51.9354 15.507 51.9354 15.8064V21.4516C51.9354 21.751 52.0544 22.0382 52.2661 22.2499C52.4778 22.4617 52.765 22.5806 53.0645 22.5806H58.7096C59.0091 22.5806 59.2962 22.4617 59.508 22.2499C59.7197 22.0382 59.8387 21.751 59.8387 21.4516V19.1935H65.4838C65.7833 19.1935 66.0704 19.0746 66.2822 18.8629C66.4939 18.6511 66.6128 18.3639 66.6128 18.0645V9.03225C66.6128 8.73281 66.4939 8.44563 66.2822 8.2339C66.0704 8.02217 65.7833 7.90321 65.4838 7.90321H59.8387V4.51612C59.8387 4.21668 59.7197 3.92951 59.508 3.71777C59.2962 3.50604 59.0091 3.38708 58.7096 3.38708H51.9354ZM53.0645 10.1613V5.64515H57.5806V7.90321H56.4516C56.1521 7.90321 55.8649 8.02217 55.6532 8.2339C55.4415 8.44563 55.3225 8.73281 55.3225 9.03225V10.1613H53.0645ZM57.5806 20.3226H54.1935V16.9355H55.3225V18.0645C55.3225 18.3639 55.4415 18.6511 55.6532 18.8629C55.8649 19.0746 56.1521 19.1935 56.4516 19.1935H57.5806V20.3226ZM64.3548 10.1613V16.9355H57.5806V10.1613H64.3548Z" fill="url(#paint12_linear_29_227)"/>
<path d="M37.258 9.03226C37.5575 9.03226 37.8446 8.91331 38.0564 8.70157C38.2681 8.48984 38.3871 8.20266 38.3871 7.90323V1.12903C38.3871 0.829594 38.2681 0.54242 38.0564 0.330686C37.8446 0.118951 37.5575 0 37.258 0H30.4838C30.1844 0 29.8972 0.118951 29.6855 0.330686C29.4737 0.54242 29.3548 0.829594 29.3548 1.12903V7.90323C29.3548 8.20266 29.4737 8.48984 29.6855 8.70157C29.8972 8.91331 30.1844 9.03226 30.4838 9.03226H37.258ZM31.6129 2.25806H36.129V6.77419H31.6129V2.25806Z" fill="url(#paint13_linear_29_227)"/>
<path d="M2.258 33.871H9.03219C9.33163 33.871 9.6188 33.752 9.83054 33.5403C10.0423 33.3285 10.1612 33.0414 10.1612 32.7419V29.3548H15.8064C16.1058 29.3548 16.393 29.2359 16.6047 29.0242C16.8165 28.8124 16.9354 28.5252 16.9354 28.2258V19.1935C16.9354 18.8941 16.8165 18.6069 16.6047 18.3952C16.393 18.1835 16.1058 18.0645 15.8064 18.0645H6.77413C6.47469 18.0645 6.18752 18.1835 5.97578 18.3952C5.76405 18.6069 5.6451 18.8941 5.6451 19.1935V24.8387H2.258C1.95856 24.8387 1.67139 24.9577 1.45965 25.1694C1.24792 25.3811 1.12897 25.6683 1.12897 25.9677V32.7419C1.12897 33.0414 1.24792 33.3285 1.45965 33.5403C1.67139 33.752 1.95856 33.871 2.258 33.871ZM7.90316 20.3226H14.6774V27.0968H7.90316V20.3226ZM3.38703 27.0968H5.6451V28.2258C5.6451 28.5252 5.76405 28.8124 5.97578 29.0242C6.18752 29.2359 6.47469 29.3548 6.77413 29.3548H7.90316V31.6129H3.38703V27.0968Z" fill="url(#paint14_linear_29_227)"/>
<path d="M9.03217 14.6774H14.6773C14.9768 14.6774 15.2639 14.5584 15.4757 14.3467C15.6874 14.135 15.8064 13.8478 15.8064 13.5484V7.9032C15.8064 7.60376 15.6874 7.31659 15.4757 7.10486C15.2639 6.89312 14.9768 6.77417 14.6773 6.77417H9.03217C8.73273 6.77417 8.44556 6.89312 8.23382 7.10486C8.02209 7.31659 7.90314 7.60376 7.90314 7.9032V13.5484C7.90314 13.8478 8.02209 14.135 8.23382 14.3467C8.44556 14.5584 8.73273 14.6774 9.03217 14.6774ZM10.1612 9.03223H13.5483V12.4193H10.1612V9.03223Z" fill="url(#paint15_linear_29_227)"/>
<path d="M50.8064 33.871C50.5069 33.871 50.2198 33.9899 50.008 34.2017C49.7963 34.4134 49.6773 34.7006 49.6773 35V39.5161C49.6773 39.8156 49.7963 40.1027 50.008 40.3145C50.2198 40.5262 50.5069 40.6452 50.8064 40.6452H55.3225C55.6219 40.6452 55.9091 40.5262 56.1208 40.3145C56.3326 40.1027 56.4515 39.8156 56.4515 39.5161V35C56.4515 34.7006 56.3326 34.4134 56.1208 34.2017C55.9091 33.9899 55.6219 33.871 55.3225 33.871H50.8064ZM54.1935 38.3871H51.9354V36.129H54.1935V38.3871Z" fill="url(#paint16_linear_29_227)"/>
<path d="M10.9435 57.5806H19.1935V55.3226H10.1612C9.93134 55.3226 9.70697 55.3928 9.51803 55.5237C9.3291 55.6546 9.1846 55.84 9.10383 56.0552L5.71674 65.0875C5.65274 65.2583 5.63107 65.4421 5.65361 65.6231C5.67614 65.8042 5.74219 65.977 5.84612 66.127C5.95004 66.2769 6.08875 66.3994 6.25036 66.484C6.41197 66.5687 6.59167 66.6129 6.7741 66.6129H60.9676C61.1501 66.6129 61.3298 66.5687 61.4914 66.484C61.653 66.3994 61.7917 66.2769 61.8956 66.127C61.9996 65.977 62.0656 65.8042 62.0881 65.6231C62.1107 65.4421 62.089 65.2583 62.025 65.0875L58.6379 56.0552C58.5571 55.84 58.4126 55.6546 58.2237 55.5237C58.0348 55.3928 57.8104 55.3226 57.5806 55.3226H48.5483V57.5806H56.7983L59.3386 64.3548H8.40315L10.9435 57.5806Z" fill="url(#paint17_linear_29_227)"/>
<defs>
<linearGradient id="paint0_linear_29_227" x1="22.1849" y1="21.7097" x2="44.5051" y2="35.8459" gradientUnits="userSpaceOnUse">
<stop stop-color="#2799D5"/>
<stop offset="0.31" stop-color="#00A660"/>
<stop offset="0.7" stop-color="#FF7900"/>
<stop offset="1" stop-color="#FDC500"/>
</linearGradient>
<linearGradient id="paint1_linear_29_227" x1="27.4967" y1="23.6452" x2="39.6714" y2="31.3558" gradientUnits="userSpaceOnUse">
<stop stop-color="#2799D5"/>
<stop offset="0.31" stop-color="#00A660"/>
<stop offset="0.7" stop-color="#FF7900"/>
<stop offset="1" stop-color="#FDC500"/>
</linearGradient>
<linearGradient id="paint2_linear_29_227" x1="2" y1="57.871" x2="14.8437" y2="88.3748" gradientUnits="userSpaceOnUse">
<stop stop-color="#2799D5"/>
<stop offset="0.31" stop-color="#00A660"/>
<stop offset="0.7" stop-color="#FF7900"/>
<stop offset="1" stop-color="#FDC500"/>
</linearGradient>
<linearGradient id="paint3_linear_29_227" x1="30.5505" y1="44" x2="33.2722" y2="44.5746" gradientUnits="userSpaceOnUse">
<stop stop-color="#2799D5"/>
<stop offset="0.31" stop-color="#00A660"/>
<stop offset="0.7" stop-color="#FF7900"/>
<stop offset="1" stop-color="#FDC500"/>
</linearGradient>
<linearGradient id="paint4_linear_29_227" x1="30.5505" y1="51.5484" x2="32.5796" y2="52.8335" gradientUnits="userSpaceOnUse">
<stop stop-color="#2799D5"/>
<stop offset="0.31" stop-color="#00A660"/>
<stop offset="0.7" stop-color="#FF7900"/>
<stop offset="1" stop-color="#FDC500"/>
</linearGradient>
<linearGradient id="paint5_linear_29_227" x1="30.5505" y1="57.1774" x2="33.2221" y2="57.8542" gradientUnits="userSpaceOnUse">
<stop stop-color="#2799D5"/>
<stop offset="0.31" stop-color="#00A660"/>
<stop offset="0.7" stop-color="#FF7900"/>
<stop offset="1" stop-color="#FDC500"/>
</linearGradient>
<linearGradient id="paint6_linear_29_227" x1="35.0666" y1="44.3709" x2="37.8195" y2="44.8691" gradientUnits="userSpaceOnUse">
<stop stop-color="#2799D5"/>
<stop offset="0.31" stop-color="#00A660"/>
<stop offset="0.7" stop-color="#FF7900"/>
<stop offset="1" stop-color="#FDC500"/>
</linearGradient>
<linearGradient id="paint7_linear_29_227" x1="35.0666" y1="54.9032" x2="37.8401" y2="55.3424" gradientUnits="userSpaceOnUse">
<stop stop-color="#2799D5"/>
<stop offset="0.31" stop-color="#00A660"/>
<stop offset="0.7" stop-color="#FF7900"/>
<stop offset="1" stop-color="#FDC500"/>
</linearGradient>
<linearGradient id="paint8_linear_29_227" x1="39.5827" y1="47.3709" x2="42.3705" y2="47.7633" gradientUnits="userSpaceOnUse">
<stop stop-color="#2799D5"/>
<stop offset="0.31" stop-color="#00A660"/>
<stop offset="0.7" stop-color="#FF7900"/>
<stop offset="1" stop-color="#FDC500"/>
</linearGradient>
<linearGradient id="paint9_linear_29_227" x1="26.0343" y1="57.1935" x2="28.0634" y2="58.4786" gradientUnits="userSpaceOnUse">
<stop stop-color="#2799D5"/>
<stop offset="0.31" stop-color="#00A660"/>
<stop offset="0.7" stop-color="#FF7900"/>
<stop offset="1" stop-color="#FDC500"/>
</linearGradient>
<linearGradient id="paint10_linear_29_227" x1="26.0343" y1="46.6129" x2="28.8324" y2="46.9673" gradientUnits="userSpaceOnUse">
<stop stop-color="#2799D5"/>
<stop offset="0.31" stop-color="#00A660"/>
<stop offset="0.7" stop-color="#FF7900"/>
<stop offset="1" stop-color="#FDC500"/>
</linearGradient>
<linearGradient id="paint11_linear_29_227" x1="39.5827" y1="57.1935" x2="41.6118" y2="58.4786" gradientUnits="userSpaceOnUse">
<stop stop-color="#2799D5"/>
<stop offset="0.31" stop-color="#00A660"/>
<stop offset="0.7" stop-color="#FF7900"/>
<stop offset="1" stop-color="#FDC500"/>
</linearGradient>
<linearGradient id="paint12_linear_29_227" x1="51.2731" y1="9.69354" x2="66.9182" y2="17.8535" gradientUnits="userSpaceOnUse">
<stop stop-color="#2799D5"/>
<stop offset="0.31" stop-color="#00A660"/>
<stop offset="0.7" stop-color="#FF7900"/>
<stop offset="1" stop-color="#FDC500"/>
</linearGradient>
<linearGradient id="paint13_linear_29_227" x1="29.6215" y1="2.96774" x2="37.7379" y2="8.10817" gradientUnits="userSpaceOnUse">
<stop stop-color="#2799D5"/>
<stop offset="0.31" stop-color="#00A660"/>
<stop offset="0.7" stop-color="#FF7900"/>
<stop offset="1" stop-color="#FDC500"/>
</linearGradient>
<linearGradient id="paint14_linear_29_227" x1="1.59563" y1="23.2581" x2="15.7994" y2="32.2538" gradientUnits="userSpaceOnUse">
<stop stop-color="#2799D5"/>
<stop offset="0.31" stop-color="#00A660"/>
<stop offset="0.7" stop-color="#FF7900"/>
<stop offset="1" stop-color="#FDC500"/>
</linearGradient>
<linearGradient id="paint15_linear_29_227" x1="8.13647" y1="9.37094" x2="15.2384" y2="13.8688" gradientUnits="userSpaceOnUse">
<stop stop-color="#2799D5"/>
<stop offset="0.31" stop-color="#00A660"/>
<stop offset="0.7" stop-color="#FF7900"/>
<stop offset="1" stop-color="#FDC500"/>
</linearGradient>
<linearGradient id="paint16_linear_29_227" x1="49.8773" y1="36.0968" x2="55.9647" y2="39.9521" gradientUnits="userSpaceOnUse">
<stop stop-color="#2799D5"/>
<stop offset="0.31" stop-color="#00A660"/>
<stop offset="0.7" stop-color="#FF7900"/>
<stop offset="1" stop-color="#FDC500"/>
</linearGradient>
<linearGradient id="paint17_linear_29_227" x1="7.31163" y1="59.0322" x2="13.7567" y2="79.4418" gradientUnits="userSpaceOnUse">
<stop stop-color="#2799D5"/>
<stop offset="0.31" stop-color="#00A660"/>
<stop offset="0.7" stop-color="#FF7900"/>
<stop offset="1" stop-color="#FDC500"/>
</linearGradient>
</defs>
</svg>
