<svg width="88" height="133" viewBox="0 0 88 133" fill="none" xmlns="http://www.w3.org/2000/svg">
<path fill-rule="evenodd" clip-rule="evenodd" d="M77.6521 0L76.9532 5.44249C76.0316 12.619 74.3755 21.7018 72.6319 31.2646C71.7149 36.2935 70.7738 41.4552 69.9025 46.5422C68.0445 57.3901 66.5048 67.8918 66.0257 76.5183C67.0733 75.4533 68.1688 74.4031 69.3364 73.4416C73.0547 70.3793 77.466 68.2511 83.8632 68.2511C85.4623 68.2511 86.4951 69.1663 86.9727 69.7797C87.4142 70.3468 87.6129 70.9147 87.7028 71.2093C87.894 71.8365 87.9544 72.4786 87.98 72.9467C88.0352 73.9597 87.9734 75.2296 87.8296 76.5909C87.5384 79.3484 86.8588 82.9619 85.7117 86.5825C84.5766 90.1649 82.9039 94.0114 80.4978 97.0371C78.0696 100.091 74.5766 102.667 69.9326 102.667C65.7838 102.667 62.8469 100.373 61.0923 97.139C60.4033 95.8692 59.8761 94.4314 59.477 92.8771C56.6249 94.8868 53.2434 96.7707 49.0779 98.3368C42.0165 100.992 32.8819 102.667 20.5095 102.667C14.6715 102.667 9.81989 101.25 6.23868 98.2796C2.62903 95.2857 0.772595 91.0975 0.20041 86.4814C-0.91431 77.4885 2.70839 66.0768 8.89626 54.889C21.3127 32.4398 45.7037 8.00782 72.2996 1.34159L77.6521 0ZM58.3855 84.2032C58.0313 73.6896 60.073 59.3524 62.4821 45.2866C63.391 39.9799 64.353 34.7063 65.2788 29.6312C66.5512 22.6562 67.7552 16.0561 68.6589 10.2604C46.8054 18.0372 26.4023 38.7679 15.4924 58.4932C9.56313 69.2134 6.8471 78.9191 7.67109 85.5665C8.06826 88.7707 9.25054 91.0334 11.0614 92.5353C12.9006 94.0608 15.8512 95.185 20.5095 95.185C32.2092 95.185 40.401 93.6001 46.4148 91.339C51.6388 89.375 55.354 86.8508 58.3855 84.2032ZM66.1263 87.2354C66.4322 90.1685 66.9976 92.261 67.7174 93.5877C68.44 94.9195 69.0978 95.185 69.9326 95.185C71.4698 95.185 73.0048 94.3944 74.5926 92.3977C76.2025 90.3733 77.5337 87.4863 78.5321 84.3352C79.4799 81.3435 80.0554 78.3451 80.3137 76.0811C77.8354 76.6109 75.9431 77.7167 74.1388 79.2026C72.7642 80.3347 71.4417 81.6896 69.912 83.3054C69.7231 83.5049 69.531 83.7084 69.3358 83.9153C68.3518 84.9579 67.2863 86.0869 66.1263 87.2354Z" fill="url(#paint0_linear_76_2261)"/>
<path d="M65.7547 132.448C65.2981 132.448 64.938 132.325 64.6746 132.079C64.4111 131.833 64.2794 131.49 64.2794 131.051V121.462C64.2794 118.968 64.9907 117.018 66.4134 115.613C67.836 114.208 69.8119 113.505 72.341 113.505C73.9919 113.505 75.4234 113.83 76.6352 114.48C77.8471 115.113 78.7692 116.026 79.4014 117.22C80.0513 118.414 80.3762 119.828 80.3762 121.462V131.051C80.3762 131.49 80.2445 131.833 79.981 132.079C79.7176 132.325 79.3575 132.448 78.9009 132.448C78.4442 132.448 78.0754 132.325 77.7944 132.079C77.5134 131.815 77.3729 131.473 77.3729 131.051V126.204H67.2828V131.051C67.2828 131.473 67.1422 131.815 66.8612 132.079C66.5802 132.325 66.2114 132.448 65.7547 132.448ZM77.3729 123.859V121.383C77.3729 119.591 76.9426 118.23 76.082 117.299C75.2389 116.368 73.9919 115.903 72.341 115.903C70.6725 115.903 69.4079 116.368 68.5473 117.299C67.7043 118.212 67.2828 119.574 67.2828 121.383V123.859H77.3729Z" fill="#353535"/>
<path d="M45.2177 117.457C45.2177 116.316 45.5514 115.42 46.2188 114.77C46.8862 114.103 47.8258 113.769 49.0377 113.769H53.8061C56.3528 113.769 58.2672 114.278 59.5493 115.297C60.849 116.316 61.4989 117.817 61.4989 119.802C61.4989 121.681 60.9281 123.139 59.7864 124.175C58.6448 125.212 57.0641 125.73 55.0443 125.73L59.4176 130.156C59.6986 130.437 59.8391 130.744 59.8391 131.078C59.8391 131.447 59.6635 131.78 59.3122 132.079C58.9785 132.325 58.6536 132.448 58.3375 132.448C57.8984 132.448 57.4769 132.237 57.0729 131.815L51.277 125.809H48.3V131.051C48.3 131.49 48.1507 131.842 47.8521 132.105C47.5711 132.351 47.2023 132.474 46.7457 132.474C46.2714 132.474 45.8938 132.351 45.6128 132.105C45.3494 131.842 45.2177 131.49 45.2177 131.051V117.457ZM53.7798 123.385C55.4659 123.385 56.6514 123.122 57.3364 122.595C58.0389 122.05 58.3902 121.119 58.3902 119.802C58.3902 118.52 58.0125 117.598 57.2573 117.036C56.5021 116.474 55.3429 116.193 53.7798 116.193H49.4855C49.1167 116.193 48.8269 116.316 48.6162 116.562C48.4054 116.79 48.3 117.115 48.3 117.536V123.385H53.7798Z" fill="#353535"/>
<path d="M33.7741 132.474C32.1583 132.474 30.7445 132.149 29.5326 131.499C28.3207 130.849 27.3899 129.918 26.74 128.707C26.0902 127.495 25.7653 126.063 25.7653 124.412V114.902C25.7653 114.463 25.897 114.12 26.1604 113.874C26.4239 113.628 26.7839 113.505 27.2406 113.505C27.6972 113.505 28.0573 113.637 28.3207 113.901C28.6017 114.147 28.7422 114.48 28.7422 114.902V124.491C28.7422 126.283 29.1813 127.662 30.0595 128.628C30.9552 129.594 32.2198 130.076 33.8532 130.076C35.4866 130.076 36.7511 129.594 37.6469 128.628C38.5426 127.644 38.9904 126.265 38.9904 124.491V114.902C38.9904 114.48 39.1222 114.147 39.3856 113.901C39.6666 113.637 40.0355 113.505 40.4921 113.505C40.9488 113.505 41.3088 113.628 41.5723 113.874C41.8533 114.12 41.9938 114.463 41.9938 114.902V124.412C41.9938 126.011 41.6513 127.424 40.9663 128.654C40.2989 129.866 39.3417 130.805 38.0947 131.473C36.8653 132.14 35.4251 132.474 33.7741 132.474Z" fill="#353535"/>
<path d="M8.04783 132.448C7.59118 132.448 7.23113 132.325 6.96768 132.079C6.70423 131.833 6.57251 131.49 6.57251 131.051V121.462C6.57251 118.968 7.28382 117.018 8.70645 115.613C10.1291 114.208 12.105 113.505 14.6341 113.505C16.285 113.505 17.7164 113.83 18.9283 114.48C20.1402 115.113 21.0623 116.026 21.6945 117.22C22.3444 118.414 22.6693 119.828 22.6693 121.462V131.051C22.6693 131.49 22.5376 131.833 22.2741 132.079C22.0107 132.325 21.6506 132.448 21.194 132.448C20.7373 132.448 20.3685 132.325 20.0875 132.079C19.8065 131.815 19.666 131.473 19.666 131.051V126.204H9.57584V131.051C9.57584 131.473 9.43533 131.815 9.15432 132.079C8.87331 132.325 8.50448 132.448 8.04783 132.448ZM19.666 123.859V121.383C19.666 119.591 19.2357 118.23 18.3751 117.299C17.532 116.368 16.285 115.903 14.6341 115.903C12.9656 115.903 11.701 116.368 10.8404 117.299C9.99736 118.212 9.57584 119.574 9.57584 121.383V123.859H19.666Z" fill="#353535"/>
<defs>
<linearGradient id="paint0_linear_76_2261" x1="14.8642" y1="20.8673" x2="82.1433" y2="98.2704" gradientUnits="userSpaceOnUse">
<stop stop-color="#FF006B"/>
<stop offset="1" stop-color="#0063F7"/>
</linearGradient>
</defs>
</svg>
