<svg width="39" height="70" viewBox="0 0 39 70" fill="none" xmlns="http://www.w3.org/2000/svg">
<path d="M37.5743 67.8983H22.2287L26.5322 60.2589L30.9357 52.4527C32.3479 52.0635 33.4043 50.7847 33.4043 49.2391V37.0405C33.4043 32.8705 31.5473 28.9563 28.3892 26.2875C31.5473 23.6299 33.4043 19.7156 33.4043 15.5346V3.33598C33.4043 1.49007 31.9031 0 30.0683 0C28.2224 0 26.7212 1.50119 26.7212 3.33598V7.20572H11.9095V3.33598C11.9095 1.49007 10.4083 0 8.56235 0C6.71644 0 5.22637 1.50119 5.22637 3.33598V15.5346C5.22637 19.7045 7.0834 23.6187 10.2415 26.2875C7.0834 28.9563 5.22637 32.8705 5.22637 37.0405V49.2391C5.22637 50.7847 6.28276 52.0747 7.70611 52.4527L12.0985 60.2478L16.4019 67.8872H1.05639C0.467037 67.8872 0 68.3654 0 68.9436C0 69.533 0.478157 70 1.05639 70H37.5631C38.1525 70 38.6195 69.5218 38.6195 68.9436C38.6307 68.3765 38.1525 67.8983 37.5743 67.8983ZM13.633 58.6799L10.0079 52.2415C10.942 51.7855 11.6315 50.9182 11.8316 49.8729L14.5894 51.2518C14.7339 51.3296 14.9007 51.363 15.0675 51.363C15.2343 51.363 15.39 51.3296 15.5457 51.2518L19.3042 49.3725L23.0739 51.2518C23.3741 51.3963 23.7188 51.3963 24.0191 51.2518L26.7879 49.8729C26.9881 50.9182 27.6886 51.7967 28.6227 52.2415L24.9976 58.6688H13.633V58.6799ZM25.8094 33.4821H12.8213C14.0778 31.1914 16.5242 29.6235 19.3264 29.6235C22.1175 29.6235 24.5528 31.1803 25.8094 33.4821ZM23.552 49.1168L19.7824 47.2375C19.4821 47.0929 19.1374 47.0929 18.8372 47.2375L15.0786 49.1168L11.9095 47.5377V45.3693H26.7323V47.5377L23.552 49.1168ZM26.7212 43.2343H11.9095V40.4766H26.7323V43.2343H26.7212ZM26.7212 37.0405V38.3638H11.9095V37.0405C11.9095 36.5512 11.965 36.0731 12.054 35.606H26.5878C26.6767 36.0731 26.7212 36.5512 26.7212 37.0405ZM28.8451 3.33598C28.8451 2.66878 29.39 2.11279 30.0683 2.11279C30.7355 2.11279 31.2915 2.65766 31.2915 3.33598V15.5346C31.2915 19.2486 29.5679 22.7403 26.6434 24.9976C26.61 24.9754 26.5655 24.9643 26.5322 24.942C26.1652 24.7196 25.7983 24.5195 25.4202 24.3304C25.3868 24.3082 25.3423 24.2971 25.309 24.2748C24.9643 24.108 24.6084 23.9635 24.2526 23.83C24.2081 23.8078 24.1525 23.7855 24.108 23.7744C26.1207 22.6068 27.6442 20.7164 28.3781 18.4702C28.4003 18.4257 28.4114 18.3813 28.4226 18.3368C28.7006 17.4472 28.8562 16.5131 28.8562 15.5234V3.33598H28.8451ZM12.8102 19.0818H25.8205C24.5639 21.3836 22.1175 22.9404 19.3264 22.9404C16.5131 22.9404 14.0667 21.3836 12.8102 19.0818ZM26.7212 15.5346C26.7212 16.0238 26.6656 16.4909 26.5766 16.9579H12.0429C11.9539 16.502 11.8983 16.0238 11.8983 15.5346V14.2002H26.7212V15.5346ZM26.7212 9.31851V12.0763H11.9095V9.31851H26.7212ZM7.33916 15.5346V3.33598C7.33916 2.66878 7.88403 2.11279 8.56235 2.11279C9.22955 2.11279 9.78554 2.65766 9.78554 3.33598V15.5346C9.78554 20.7943 14.0667 25.0643 19.3264 25.0643C21.7506 25.0643 24.0747 25.7871 26.0763 27.1549C29.3455 29.4011 31.2915 33.0929 31.2915 37.0405V49.2391C31.2915 49.9063 30.7466 50.4623 30.0683 50.4623C29.4011 50.4623 28.8451 49.9174 28.8451 49.2391V37.0405C28.8451 36.0286 28.6894 35.0612 28.3892 34.1493C28.3892 34.1382 28.3781 34.1271 28.3781 34.1271C27.1438 30.2907 23.552 27.5107 19.3153 27.5107C19.0151 27.5107 18.7148 27.4996 18.4146 27.4774C16.3241 27.3217 14.3114 26.61 12.5544 25.4202C9.29627 23.1739 7.33916 19.4821 7.33916 15.5346ZM7.33916 37.0405C7.33916 33.3265 9.06275 29.8348 11.9984 27.5663C12.0318 27.5886 12.0763 27.5997 12.1096 27.6219C12.4766 27.8443 12.8435 28.0445 13.2327 28.2335C13.2661 28.2558 13.3106 28.2669 13.3439 28.278C13.6886 28.4448 14.0445 28.5894 14.4114 28.7228C14.4559 28.745 14.5004 28.7673 14.556 28.7784C12.5544 29.946 11.0199 31.8253 10.2859 34.0604C10.2637 34.116 10.2415 34.1716 10.2303 34.2272C9.95234 35.1168 9.79666 36.0508 9.79666 37.0183V49.2168C9.79666 49.884 9.25179 50.44 8.57347 50.44C7.90627 50.44 7.35028 49.8952 7.35028 49.2168V37.0405H7.33916ZM23.7967 60.8038L20.0715 67.3979C19.8936 67.7093 19.6156 67.8983 19.3153 67.8983C19.0151 67.8983 18.7371 67.7204 18.5592 67.3979L14.834 60.7927H23.7967V60.8038Z" fill="url(#paint0_linear_358_6)"/>
<defs>
<linearGradient id="paint0_linear_358_6" x1="19.3099" y1="0" x2="19.3099" y2="70" gradientUnits="userSpaceOnUse">
<stop stop-color="#289AD6"/>
<stop offset="0.33" stop-color="#00A660"/>
<stop offset="0.665" stop-color="#FF7900"/>
<stop offset="1" stop-color="#FDC500"/>
</linearGradient>
</defs>
</svg>
