<svg width="69" height="70" viewBox="0 0 69 70" fill="none" xmlns="http://www.w3.org/2000/svg">
<path d="M63.1097 29.9389C63.1485 29.8993 63.0923 6.94919 63.1148 6.88518C63.1147 3.0885 60.0262 0 56.2295 0H37.8688C34.4638 0 31.6362 2.48657 31.0873 5.7377H27.541C23.7442 5.7377 20.6557 8.82621 20.6557 12.6229V22.9508C18.1247 22.9508 16.0656 25.01 16.0656 27.541V30.9836C16.1011 32.4972 18.33 32.49 18.3606 30.9835C18.3606 30.9836 18.3606 27.541 18.3606 27.541C18.3606 26.2752 19.39 25.2459 20.6557 25.2459H27.541C28.8067 25.2459 29.8361 26.2752 29.8361 27.541V30.9836C29.8361 31.6173 30.3499 32.1311 30.9836 32.1311H61.9672C64.4982 32.1311 66.5574 34.1903 66.5574 36.7213V47.6913C66.5653 49.1845 68.8349 49.2082 68.8524 47.6912C68.8524 47.6913 68.8524 36.7213 68.8524 36.7213C68.8524 33.3145 66.3633 30.4857 63.1097 29.9389ZM50.4918 29.8361H32.1311V27.541C32.1311 25.01 30.0719 22.9508 27.541 22.9508H22.9508V12.6229C22.9508 10.092 25.01 8.03279 27.541 8.03279H45.9016C48.4326 8.03279 50.4918 10.092 50.4918 12.6229V29.8361ZM60.8196 29.8361H52.7869V12.6229C52.7869 8.82621 49.6984 5.7377 45.9016 5.7377H33.4417C33.9549 3.76361 35.7364 2.29508 37.8688 2.29508H56.2295C58.7605 2.29508 60.8196 4.35426 60.8196 6.88524V29.8361Z" fill="url(#paint0_linear_29_286)"/>
<path d="M66.5131 49.825H65.4059C65.0966 48.6618 64.6394 47.5568 64.0393 46.5214L64.8187 45.7425C65.7253 44.8705 65.726 43.3048 64.8181 42.4344L63.1327 40.7489C62.221 39.8378 60.7378 39.8367 59.8251 40.7489L59.0445 41.5289C58.0085 40.9305 56.9024 40.4744 55.7392 40.1662V39.0601C55.7392 37.7702 54.6903 36.7213 53.4004 36.7213H51.0168C49.7269 36.7213 48.6775 37.7702 48.6775 39.0601V40.1684C47.5148 40.4777 46.4087 40.9349 45.3738 41.5345L44.5955 40.7568C43.7102 39.8703 42.1676 39.8726 41.2868 40.7556L39.6014 42.4411C38.6897 43.3533 38.6897 44.8359 39.6014 45.7481L40.3819 46.5292C39.7829 47.5647 39.3262 48.6708 39.0186 49.834H37.9131C36.6232 49.834 35.5738 50.884 35.5738 52.1739V54.5564C35.5738 55.8462 36.6232 56.8963 37.9131 56.8963H39.0203C39.3296 58.0595 39.7863 59.1645 40.3864 60.2L39.6075 60.9788C38.6953 61.891 38.6953 63.3747 39.6075 64.2869L41.2935 65.9735C42.2063 66.8857 43.69 66.8846 44.6017 65.9724L45.3811 65.1913C46.4171 65.7908 47.5232 66.247 48.687 66.5551V67.6612C48.687 68.9511 49.7359 70 51.0258 70H53.4094C54.6992 70 55.7487 68.9511 55.7487 67.6612V66.5529C56.9114 66.2436 58.0175 65.7864 59.0524 65.1868L59.8318 65.9668C60.7429 66.8768 62.2272 66.8779 63.1394 65.9657L64.8237 64.2813C65.7319 63.4096 65.7323 61.8447 64.8243 60.9721L64.0449 60.1921C64.6433 59.1566 65.1 58.0506 65.4076 56.8873H66.5131C67.8029 56.8873 68.8524 55.8373 68.8524 54.5474V52.1638C68.8524 50.874 67.8029 49.825 66.5131 49.825ZM66.5131 54.5923H64.4931C63.9429 54.5923 63.47 54.9822 63.3663 55.5235C63.0744 57.0397 62.4928 58.4495 61.6372 59.7147C61.329 60.1708 61.3873 60.7804 61.7761 61.1693L63.2016 62.6575L61.4539 64.343L60.029 62.9186C59.6396 62.5298 59.03 62.4715 58.5744 62.7797C57.3092 63.6359 55.8989 64.2197 54.3827 64.5133C53.8431 64.6175 53.4536 65.0905 53.4536 65.6396L53.4094 67.7049L50.9821 67.6612V65.6407C50.9821 65.0905 50.5915 64.6175 50.0514 64.5133C48.5346 64.222 47.1237 63.6403 45.8585 62.7842C45.6624 62.6519 45.4382 62.5869 45.2158 62.5869C44.5308 62.5029 43.5626 63.8184 42.9157 64.3497L41.2302 62.6015L42.6551 61.176C43.0445 60.7872 43.1023 60.1764 42.7941 59.7214C41.9368 58.4562 41.354 57.0465 41.061 55.5313C40.9562 54.9912 40.4839 54.6012 39.9342 54.6012L37.8689 54.5564L37.9131 52.1291H39.9331C40.4833 52.1291 40.9562 51.7391 41.0599 51.1978C41.3518 49.6816 41.9334 48.2718 42.789 47.0066C43.0972 46.5505 43.0389 45.9409 42.6501 45.552L41.2241 44.0638L42.9717 42.3783L44.3972 43.8027C44.786 44.1915 45.3957 44.2498 45.8518 43.9416C47.117 43.0854 48.5273 42.5016 50.0435 42.208C50.5831 42.1038 50.9726 41.6308 50.9726 41.0817L51.0168 39.0164L53.4441 39.0601V41.0806C53.4441 41.6308 53.8347 42.1038 54.3748 42.208C55.8905 42.4994 57.3014 43.081 58.5677 43.936C59.0249 44.2453 59.6335 44.1859 60.0218 43.7971L61.51 42.3716L63.1954 44.1198L61.7705 45.5441C61.3817 45.933 61.3234 46.5438 61.6316 46.9987C62.4889 48.2651 63.0722 49.6748 63.3652 51.19C63.47 51.7301 63.9423 52.1201 64.492 52.1201H66.5131L66.5574 52.1638L66.5131 54.5923Z" fill="url(#paint1_linear_29_286)"/>
<path d="M52.2131 45.3279C47.7838 45.3279 44.1803 48.9319 44.1803 53.3607C44.5845 64.0025 59.8434 63.9996 60.2459 53.3605C60.2459 48.9319 56.6425 45.3279 52.2131 45.3279ZM52.2131 59.0984C49.0495 59.0984 46.4754 56.5243 46.4754 53.3607C46.7451 45.7668 57.6823 45.7688 57.9508 53.3607C57.9508 56.5242 55.3767 59.0984 52.2131 59.0984Z" fill="url(#paint2_linear_29_286)"/>
<path d="M6.88524 70H25.2459C29.0426 70 32.1311 66.9115 32.1311 63.1147V40.1639C32.1311 36.3672 29.0426 33.2787 25.2459 33.2787H6.88524C3.0885 33.2787 0 36.3672 0 40.1639V63.1147C0 66.9115 3.0885 70 6.88524 70ZM2.29508 40.1639C2.29508 37.6324 4.35426 35.5738 6.88524 35.5738H25.2459C27.7769 35.5738 29.8361 37.6324 29.8361 40.1639V63.1147C29.8361 65.6463 27.7769 67.7049 25.2459 67.7049H6.88524C4.35426 67.7049 2.29508 65.6463 2.29508 63.1147V40.1639Z" fill="url(#paint3_linear_29_286)"/>
<path d="M9.1803 42.459H22.9508C24.455 42.4351 24.4625 40.1894 22.9508 40.1639H9.1803C7.67619 40.1878 7.66862 42.4335 9.1803 42.459Z" fill="url(#paint4_linear_29_286)"/>
<path d="M9.1803 48.1967H22.9508C24.455 48.1727 24.4625 45.927 22.9508 45.9016H9.1803C7.67619 45.9255 7.66862 48.1712 9.1803 48.1967Z" fill="url(#paint5_linear_29_286)"/>
<path d="M9.1803 53.9344H22.9508C24.455 53.9105 24.4625 51.6648 22.9508 51.6393H9.1803C7.67619 51.6632 7.66862 53.9089 9.1803 53.9344Z" fill="url(#paint6_linear_29_286)"/>
<path d="M19.5082 57.377H12.6229C11.1166 57.4016 11.1131 59.6468 12.623 59.6721H19.5082C21.0145 59.6475 21.0181 57.4022 19.5082 57.377Z" fill="url(#paint7_linear_29_286)"/>
<path d="M29.8361 14.918H43.6066C45.1107 14.8936 45.1182 12.6488 43.6066 12.6229H29.8361C28.332 12.6472 28.3245 14.8921 29.8361 14.918Z" fill="url(#paint8_linear_29_286)"/>
<path d="M43.6066 18.3607H29.8361C28.332 18.385 28.3245 20.6298 29.8361 20.6557H43.6066C45.1107 20.6314 45.1182 18.3865 43.6066 18.3607Z" fill="url(#paint9_linear_29_286)"/>
<path d="M43.6066 24.0983H36.8536C35.3473 24.1233 35.3438 26.3677 36.8536 26.3934C36.8536 26.3934 43.6066 26.3934 43.6066 26.3934C45.1129 26.3683 45.1163 24.124 43.6066 24.0983Z" fill="url(#paint10_linear_29_286)"/>
<defs>
<linearGradient id="paint0_linear_29_286" x1="36.7656" y1="14.646" x2="56.6054" y2="40.2157" gradientUnits="userSpaceOnUse">
<stop stop-color="#2799D5"/>
<stop offset="0.31" stop-color="#00A660"/>
<stop offset="0.685" stop-color="#FF7900"/>
<stop offset="1" stop-color="#FDC500"/>
</linearGradient>
<linearGradient id="paint1_linear_29_286" x1="48.6238" y1="46.7049" x2="62.3729" y2="63.0933" gradientUnits="userSpaceOnUse">
<stop stop-color="#2799D5"/>
<stop offset="0.31" stop-color="#00A660"/>
<stop offset="0.685" stop-color="#FF7900"/>
<stop offset="1" stop-color="#FDC500"/>
</linearGradient>
<linearGradient id="paint2_linear_29_286" x1="50.4803" y1="50.1318" x2="57.0924" y2="58.0389" gradientUnits="userSpaceOnUse">
<stop stop-color="#2799D5"/>
<stop offset="0.31" stop-color="#00A660"/>
<stop offset="0.685" stop-color="#FF7900"/>
<stop offset="1" stop-color="#FDC500"/>
</linearGradient>
<linearGradient id="paint3_linear_29_286" x1="12.6" y1="44.2951" x2="27.9924" y2="60.3487" gradientUnits="userSpaceOnUse">
<stop stop-color="#2799D5"/>
<stop offset="0.31" stop-color="#00A660"/>
<stop offset="0.685" stop-color="#FF7900"/>
<stop offset="1" stop-color="#FDC500"/>
</linearGradient>
<linearGradient id="paint4_linear_29_286" x1="14.3364" y1="40.8525" x2="14.5643" y2="42.7508" gradientUnits="userSpaceOnUse">
<stop stop-color="#2799D5"/>
<stop offset="0.31" stop-color="#00A660"/>
<stop offset="0.685" stop-color="#FF7900"/>
<stop offset="1" stop-color="#FDC500"/>
</linearGradient>
<linearGradient id="paint5_linear_29_286" x1="14.3364" y1="46.5901" x2="14.5643" y2="48.4885" gradientUnits="userSpaceOnUse">
<stop stop-color="#2799D5"/>
<stop offset="0.31" stop-color="#00A660"/>
<stop offset="0.685" stop-color="#FF7900"/>
<stop offset="1" stop-color="#FDC500"/>
</linearGradient>
<linearGradient id="paint6_linear_29_286" x1="14.3364" y1="52.3279" x2="14.5643" y2="54.2262" gradientUnits="userSpaceOnUse">
<stop stop-color="#2799D5"/>
<stop offset="0.31" stop-color="#00A660"/>
<stop offset="0.685" stop-color="#FF7900"/>
<stop offset="1" stop-color="#FDC500"/>
</linearGradient>
<linearGradient id="paint7_linear_29_286" x1="15.079" y1="58.0655" x2="15.4671" y2="59.9096" gradientUnits="userSpaceOnUse">
<stop stop-color="#2799D5"/>
<stop offset="0.31" stop-color="#00A660"/>
<stop offset="0.685" stop-color="#FF7900"/>
<stop offset="1" stop-color="#FDC500"/>
</linearGradient>
<linearGradient id="paint8_linear_29_286" x1="34.9921" y1="13.3114" x2="35.2201" y2="15.2098" gradientUnits="userSpaceOnUse">
<stop stop-color="#2799D5"/>
<stop offset="0.31" stop-color="#00A660"/>
<stop offset="0.685" stop-color="#FF7900"/>
<stop offset="1" stop-color="#FDC500"/>
</linearGradient>
<linearGradient id="paint9_linear_29_286" x1="34.9921" y1="19.0492" x2="35.2201" y2="20.9475" gradientUnits="userSpaceOnUse">
<stop stop-color="#2799D5"/>
<stop offset="0.31" stop-color="#00A660"/>
<stop offset="0.685" stop-color="#FF7900"/>
<stop offset="1" stop-color="#FDC500"/>
</linearGradient>
<linearGradient id="paint10_linear_29_286" x1="39.2577" y1="24.7869" x2="39.6511" y2="26.6286" gradientUnits="userSpaceOnUse">
<stop stop-color="#2799D5"/>
<stop offset="0.31" stop-color="#00A660"/>
<stop offset="0.685" stop-color="#FF7900"/>
<stop offset="1" stop-color="#FDC500"/>
</linearGradient>
</defs>
</svg>
