<?xml version="1.0" encoding="UTF-8"?>
<svg version="1.1" xmlns="http://www.w3.org/2000/svg" width="196" height="148">
<path d="M0 0 C64.68 0 129.36 0 196 0 C196 48.84 196 97.68 196 148 C131.32 148 66.64 148 0 148 C0 99.16 0 50.32 0 0 Z " fill="#FEFEFE" transform="translate(0,0)"/>
<path d="M0 0 C6.89234475 4.8579178 12.69850366 11.5677415 18.625 17.52734375 C19.62225677 18.52647028 20.61973802 19.5253728 21.61743164 20.52406311 C24.21705679 23.1274695 26.81366231 25.7338667 29.40960693 28.34094238 C32.06939763 31.01104274 34.7320934 33.67824277 37.39453125 36.34570312 C42.59916888 41.56100038 47.8006134 46.77946716 53 52 C56.77745258 50.44021569 59.09303082 48.10140727 61.91699219 45.18310547 C62.39240448 44.69513489 62.86781677 44.20716431 63.3576355 43.70440674 C64.3865521 42.64785819 65.4133307 41.58922422 66.43819427 40.52874374 C68.06365869 38.84985215 69.69787954 37.17998766 71.33526611 35.51272583 C75.98932282 30.77331197 80.6380633 26.02911849 85.25390625 21.25244141 C88.0811376 18.32801439 90.9276563 15.42361668 93.7876358 12.5312233 C94.87143813 11.42766033 95.94789602 10.31683298 97.01662445 9.19866562 C106.43556744 -0.64611505 106.43556744 -0.64611505 111.56738281 -0.77685547 C115 -0 115 -0 117.5 1.5625 C119.68071663 5.10616452 119.75331723 6.89099694 119 11 C114.1420822 17.89234475 107.4322585 23.69850366 101.47265625 29.625 C100.47352972 30.62225677 99.4746272 31.61973802 98.47593689 32.61743164 C95.8725305 35.21705679 93.2661333 37.81366231 90.65905762 40.40960693 C87.98895726 43.06939763 85.32175723 45.7320934 82.65429688 48.39453125 C77.43899962 53.59916888 72.22053284 58.8006134 67 64 C68.55978431 67.77745258 70.89859273 70.09303082 73.81689453 72.91699219 C74.30486511 73.39240448 74.79283569 73.86781677 75.29559326 74.3576355 C76.35214181 75.3865521 77.41077578 76.4133307 78.47125626 77.43819427 C80.15014785 79.06365869 81.82001234 80.69787954 83.48727417 82.33526611 C88.22668803 86.98932282 92.97088151 91.6380633 97.74755859 96.25390625 C100.67198561 99.0811376 103.57638332 101.9276563 106.4687767 104.7876358 C107.57233967 105.87143813 108.68316702 106.94789602 109.80133438 108.01662445 C119.64627556 117.43572101 119.64627556 117.43572101 119.77294922 122.56738281 C119 126 119 126 117.5 128.5 C114.05735197 130.56558882 110.87748271 130.65200836 107 130 C104.06384277 128.02587891 104.06384277 128.02587891 101.31835938 125.2265625 C100.81000549 124.71937683 100.30165161 124.21219116 99.77789307 123.68963623 C98.11348984 122.01968899 96.47917587 120.3232943 94.84375 118.625 C93.69108981 117.45740826 92.53664253 116.29157828 91.38049316 115.12744141 C88.35074932 112.06723628 85.3458021 108.98377499 82.34545898 105.89477539 C79.27622317 102.74352004 76.18404976 99.61495195 73.09375 96.484375 C67.03986845 90.3448434 61.01200421 84.18054365 55 78 C51.26599094 79.55688632 48.91188877 81.85224219 46.07958984 84.70922852 C45.60429337 85.18583923 45.12899689 85.66244995 44.63929749 86.15350342 C43.07518825 87.72408433 41.51817685 89.30151621 39.9609375 90.87890625 C38.87336414 91.97275212 37.78527263 93.06608302 36.69668579 94.15892029 C33.83597538 97.032918 30.98088978 99.91243352 28.12738037 102.7935791 C23.55415271 107.40997296 18.97414839 112.01961981 14.39091873 116.62608147 C12.7898186 118.23742039 11.19216511 119.8521199 9.59481812 121.46717834 C8.61720073 122.45162174 7.63947434 123.4359569 6.66162109 124.42016602 C5.8076474 125.28239273 4.95367371 126.14461945 4.07382202 127.03297424 C1.34062979 129.62541442 0.43951871 129.95930382 -3.375 130.3125 C-7 130 -7 130 -9.4375 128.5 C-11.58332428 125.06668115 -11.66068027 121.90411244 -11 118 C-9.02587891 115.06384277 -9.02587891 115.06384277 -6.2265625 112.31835938 C-5.71937683 111.81000549 -5.21219116 111.30165161 -4.68963623 110.77789307 C-3.01968899 109.11348984 -1.3232943 107.47917587 0.375 105.84375 C1.54259174 104.69108981 2.70842172 103.53664253 3.87255859 102.38049316 C6.93276372 99.35074932 10.01622501 96.3458021 13.10522461 93.34545898 C16.25647996 90.27622317 19.38504805 87.18404976 22.515625 84.09375 C28.6551566 78.03986845 34.81945635 72.01200421 41 66 C39.44311368 62.26599094 37.14775781 59.91188877 34.29077148 57.07958984 C33.81416077 56.60429337 33.33755005 56.12899689 32.84649658 55.63929749 C31.27591567 54.07518825 29.69848379 52.51817685 28.12109375 50.9609375 C27.02724788 49.87336414 25.93391698 48.78527263 24.84107971 47.69668579 C21.967082 44.83597538 19.08756648 41.98088978 16.2064209 39.12738037 C11.59002704 34.55415271 6.98038019 29.97414839 2.37391853 25.39091873 C0.76257961 23.7898186 -0.8521199 22.19216511 -2.46717834 20.59481812 C-3.45162174 19.61720073 -4.4359569 18.63947434 -5.42016602 17.66162109 C-6.28239273 16.8076474 -7.14461945 15.95367371 -8.03297424 15.07382202 C-10.62541442 12.34062979 -10.95930382 11.43951871 -11.3125 7.625 C-11 4 -11 4 -9.4375 1.5625 C-5.90550465 -0.70159958 -4.13858566 -0.7587407 0 0 Z " fill="#040404" transform="translate(44,14)"/>
</svg>
