<?xml version="1.0" encoding="UTF-8"?>
<svg version="1.1" xmlns="http://www.w3.org/2000/svg" width="512" height="512">
<path d="M0 0 C1.88098875 -0.00302299 3.76197627 -0.00691321 5.64296162 -0.01159257 C10.79633969 -0.0218622 15.94964812 -0.01969337 21.10303187 -0.01541197 C26.66688074 -0.01294289 32.23071292 -0.02196117 37.79455566 -0.02944946 C48.68861094 -0.04219324 59.58264156 -0.04399056 70.47670303 -0.0416492 C79.33220021 -0.03986558 88.18768991 -0.04161662 97.04318619 -0.04587364 C98.30393134 -0.04646883 99.56467649 -0.04706402 100.86362604 -0.04767724 C103.42489393 -0.04888901 105.98616181 -0.05010314 108.5474297 -0.05131962 C125.74205365 -0.05910557 142.93667479 -0.06302685 160.13129997 -0.05900288 C160.80332147 -0.0588465 161.47534297 -0.05869012 162.16772875 -0.05852901 C165.57359141 -0.05772326 168.97945407 -0.05687749 172.38531671 -0.05601571 C173.3998908 -0.05575908 173.3998908 -0.05575908 174.43496132 -0.05549726 C175.80277026 -0.0551506 177.17057919 -0.05480207 178.53838813 -0.05445167 C199.82111018 -0.04909458 221.1037908 -0.05702593 242.38650513 -0.07548523 C266.31277287 -0.09621321 290.23901513 -0.10689537 314.16529477 -0.10290974 C326.8282887 -0.10099746 339.49124488 -0.10348803 352.15423203 -0.11762428 C362.93391512 -0.12953647 373.71353722 -0.13094472 384.49322115 -0.11883412 C389.99139038 -0.11294445 395.48944805 -0.11184858 400.98760986 -0.12383652 C406.02476141 -0.13469154 411.06170819 -0.13159634 416.09885015 -0.11757483 C417.91705678 -0.11492689 419.73527945 -0.11729748 421.55347036 -0.1253107 C446.5854891 -0.22793962 446.5854891 -0.22793962 455.81668091 7.52241516 C461.29429415 12.96334796 465.17090502 18.43998683 465.81968057 26.34233409 C465.82179385 27.99933032 465.82179385 27.99933032 465.82394981 29.68980122 C465.83039871 30.97112 465.8368476 32.25243878 465.84349191 33.5725854 C465.84054989 34.98720293 465.83741447 36.40182005 465.83410645 37.81643677 C465.83784399 39.32488011 465.84244593 40.83332152 465.84783709 42.34175986 C465.8600696 46.4838265 465.85980633 50.62581238 465.85744834 54.76789296 C465.85704024 59.23631671 465.86807867 63.70471454 465.87756348 68.17312622 C465.89417571 76.92640929 465.89967312 85.67966542 465.90078823 94.43296293 C465.90173858 101.54802174 465.9058482 108.66307167 465.91218948 115.77812767 C465.92980231 135.95062772 465.93902826 156.12310649 465.93752854 176.29561428 C465.93740867 177.92683946 465.93740867 177.92683946 465.93728638 179.59101868 C465.93720462 180.67982988 465.93712285 181.76864108 465.93703862 182.89044657 C465.93622565 200.53763893 465.95536589 218.18474595 465.98356311 235.83191363 C466.01228738 253.95190197 466.02610366 272.07184869 466.02437556 290.19186038 C466.02371151 300.36488015 466.02921032 310.53781044 466.05073166 320.71080971 C466.06893739 329.37204846 466.07329576 338.03315719 466.05971281 346.69440679 C466.05318017 351.11276088 466.05307662 355.53086546 466.07041931 359.94919586 C466.08614199 363.99645514 466.08329482 368.04326691 466.06585105 372.09051522 C466.06277937 373.55213032 466.06641994 375.01377874 466.0775712 376.47535453 C466.16004616 388.05506024 464.42300666 395.99921473 456.41043091 404.53804016 C446.29170578 413.992188 432.06436842 412.55084217 419.13336182 412.52139282 C417.25237307 412.52441581 415.37138555 412.52830603 413.4904002 412.53298539 C408.33702212 412.54325502 403.1837137 412.54108619 398.03032994 412.5368048 C392.46648107 412.53433571 386.90264889 412.54335399 381.33880615 412.55084229 C370.44475088 412.56358606 359.55072026 412.56538339 348.65665878 412.56304202 C339.80116161 412.5612584 330.94567191 412.56300944 322.09017563 412.56726646 C320.82943048 412.56786165 319.56868533 412.56845684 318.26973578 412.56907007 C315.70846789 412.57028183 313.1472 412.57149596 310.58593212 412.57271244 C293.39130816 412.58049839 276.19668702 412.58441967 259.00206184 412.5803957 C258.33004035 412.58023932 257.65801885 412.58008295 256.96563306 412.57992183 C253.5597704 412.57911608 250.15390775 412.57827031 246.7480451 412.57740853 C245.73347102 412.5771519 245.73347102 412.5771519 244.69840049 412.57689008 C243.33059156 412.57654343 241.96278262 412.5761949 240.59497369 412.5758445 C219.31225164 412.5704874 198.02957102 412.57841875 176.74685669 412.59687805 C152.82058895 412.61760603 128.89434668 412.62828819 104.96806705 412.62430257 C92.30507312 412.62239028 79.64211693 412.62488085 66.97912979 412.63901711 C56.1994467 412.65092929 45.4198246 412.65233754 34.64014067 412.64022694 C29.14197143 412.63433727 23.64391376 412.6332414 18.14575195 412.64522934 C13.10860041 412.65608436 8.07165363 412.65298917 3.03451167 412.63896766 C1.21630503 412.63631971 -0.60191763 412.63869031 -2.42010854 412.64670352 C-27.45212729 412.74933245 -27.45212729 412.74933245 -36.68331909 404.99897766 C-42.16093234 399.55804486 -46.0375432 394.08140599 -46.68631876 386.17905873 C-46.68772761 385.07439458 -46.68913646 383.96973043 -46.690588 382.83159161 C-46.70026134 380.90961343 -46.70026134 380.90961343 -46.7101301 378.94880742 C-46.70718807 377.5341899 -46.70405265 376.11957277 -46.70074463 374.70495605 C-46.70448217 373.19651271 -46.70908411 371.6880713 -46.71447527 370.17963296 C-46.72670779 366.03756633 -46.72644451 361.89558044 -46.72408652 357.75349987 C-46.72367842 353.28507612 -46.73471685 348.81667828 -46.74420166 344.3482666 C-46.76081389 335.59498353 -46.7663113 326.8417274 -46.76742642 318.08842989 C-46.76837676 310.97337108 -46.77248638 303.85832115 -46.77882767 296.74326515 C-46.7964405 276.5707651 -46.80566644 256.39828634 -46.80416672 236.22577854 C-46.80408681 235.13829509 -46.80400689 234.05081164 -46.80392456 232.93037415 C-46.8038428 231.84156294 -46.80376104 230.75275174 -46.8036768 229.63094626 C-46.80286383 211.98375389 -46.82200407 194.33664687 -46.85020129 176.68947919 C-46.87892556 158.56949085 -46.89274185 140.44954414 -46.89101374 122.32953244 C-46.89034969 112.15651268 -46.8958485 101.98358238 -46.91736984 91.81058311 C-46.93557558 83.14934436 -46.93993394 74.48823564 -46.926351 65.82698604 C-46.91981835 61.40863195 -46.91971481 56.99052736 -46.9370575 52.57219696 C-46.95278018 48.52493768 -46.949933 44.47812591 -46.93248923 40.4308776 C-46.92941755 38.96926251 -46.93305812 37.50761408 -46.94420938 36.04603829 C-47.02668434 24.46633258 -45.28964485 16.52217809 -37.27706909 7.98335266 C-27.15834396 -1.47079518 -12.9310066 -0.02944934 0 0 Z " fill="#FB4359" transform="translate(46.433319091796875,49.73930358886719)"/>
<path d="M0 0 C8.39276787 7.19380104 16.62481514 14.50645408 24.3671875 22.3984375 C26.14130008 24.13859577 27.98986551 25.75600214 29.875 27.375 C32.8846753 29.96634205 35.71088616 32.67254783 38.5 35.5 C41.22829407 38.26560408 43.98516834 40.91287031 46.9375 43.4375 C51.03058303 46.9446944 54.77224704 50.75725158 58.55859375 54.58984375 C61.27202727 57.26854532 64.10777023 59.74608118 67.00390625 62.22265625 C70.06803813 64.95099285 72.90481832 67.89667908 75.78515625 70.81640625 C77.77659461 72.77974671 79.81302578 74.62079669 81.9375 76.4375 C86.03058303 79.9446944 89.77224704 83.75725158 93.55859375 87.58984375 C96.27202727 90.26854532 99.10777023 92.74608118 102.00390625 95.22265625 C105.06666727 97.94977223 107.90223493 100.89404637 110.78125 103.8125 C112.79430632 105.79720342 114.85446403 107.66096916 117 109.5 C120.79358733 112.75164628 124.27392647 116.25713094 127.78125 119.8125 C129.79430632 121.79720342 131.85446403 123.66096916 134 125.5 C136.97140209 128.04691608 139.7514401 130.71378859 142.5 133.5 C145.22829407 136.26560408 147.98516834 138.91287031 150.9375 141.4375 C155.03058303 144.9446944 158.77224704 148.75725158 162.55859375 152.58984375 C165.27367274 155.27016973 168.10885674 157.75027879 171.01171875 160.22265625 C173.24471114 162.21874964 175.29774038 164.34270586 177.375 166.5 C185.42841136 174.63672251 194.03981225 181.03018912 205.75 181.4375 C222.061145 181.02237012 231.35818955 171.8510973 242.1484375 160.85546875 C244.99198818 157.97531791 247.99257057 155.32930331 251.07421875 152.70703125 C254.11798975 150.009003 256.9258425 147.08202267 259.78125 144.1875 C262.40771122 141.59803119 265.16976458 139.21163036 267.96875 136.8125 C270.23638572 134.7890712 272.3657695 132.66346653 274.5 130.5 C277.22829407 127.73439592 279.98516834 125.08712969 282.9375 122.5625 C287.02778779 119.05770072 290.7670907 115.24801386 294.55078125 111.41796875 C297.3104604 108.69350082 300.19180657 106.16452624 303.13671875 103.64453125 C305.61768663 101.45483004 307.90878208 99.10191869 310.2265625 96.7421875 C312.04800415 94.95284173 313.93714279 93.28711468 315.875 91.625 C318.8846753 89.03365795 321.71088616 86.32745217 324.5 83.5 C327.22829407 80.73439592 329.98516834 78.08712969 332.9375 75.5625 C336.1103592 72.84380752 339.06338382 69.97248325 342 67 C345.54232199 63.41441301 349.17555661 60.05108338 353.00390625 56.77734375 C356.0652964 54.05144841 358.89965164 51.10858642 361.77734375 48.19140625 C364.4270144 45.57898932 367.21172803 43.16697379 370.03515625 40.74609375 C372.10820324 38.90384325 374.05435802 36.97598338 376 35 C378.55990134 32.40017817 381.1677954 29.93731602 383.9375 27.5625 C386.92801716 24.99334729 389.73116684 22.30682744 392.5 19.5 C395.87338453 16.08032546 399.35939727 12.89437101 403.0078125 9.7734375 C405.95351091 7.15118832 408.68919192 4.33423847 411.43359375 1.50390625 C413 0 413 0 414 0 C414 105.93 414 211.86 414 321 C420.93 321 427.86 321 435 321 C435 321.33 435 321.66 435 322 C284.52 322 134.04 322 -21 322 C-21 321.67 -21 321.34 -21 321 C-14.07 321 -7.14 321 0 321 C0 215.07 0 109.14 0 0 Z " fill="#D7DCE0" transform="translate(49,140)"/>
<path d="M0 0 C150.48 0 300.96 0 456 0 C454.68 0.66 453.36 1.32 452 2 C440.03036858 11.15836205 429.38896085 22.61942227 418.43041992 32.94677734 C414.83104261 36.3385378 411.22722703 39.7253233 407.61328125 43.1015625 C406.90163818 43.76679932 406.18999512 44.43203613 405.45678711 45.11743164 C404.1187069 46.36763511 402.77974948 47.61690073 401.43969727 48.86499023 C398.33368795 51.7681047 395.27693532 54.70551073 392.28125 57.72265625 C389.97292034 60.0468496 387.63493873 62.26665146 385.125 64.375 C382.1153247 66.96634205 379.28911384 69.67254783 376.5 72.5 C373.13885518 75.9071879 369.66298797 79.07458174 366.03125 82.1875 C363.76361428 84.2109288 361.6342305 86.33653347 359.5 88.5 C356.13885518 91.9071879 352.66298797 95.07458174 349.03125 98.1875 C346.76361428 100.2109288 344.6342305 102.33653347 342.5 104.5 C339.13885518 107.9071879 335.66298797 111.07458174 332.03125 114.1875 C328.96025683 116.92777083 326.11213124 119.87946902 323.22265625 122.80859375 C320.5729856 125.42101068 317.78827197 127.83302621 314.96484375 130.25390625 C312.89179676 132.09615675 310.94564198 134.02401662 309 136 C306.44009866 138.59982183 303.8322046 141.06268398 301.0625 143.4375 C298.07198284 146.00665271 295.26883316 148.69317256 292.5 151.5 C289.13885518 154.9071879 285.66298797 158.07458174 282.03125 161.1875 C279.76361428 163.2109288 277.6342305 165.33653347 275.5 167.5 C272.13598054 170.91010192 268.66010153 174.08220126 265.01953125 177.19140625 C262.79898892 179.18001572 260.75428945 181.2899479 258.6875 183.4375 C249.35545989 192.81764341 240.41557198 198.87209275 227 199.4375 C210.79132221 198.85935608 200.14674019 186.38201675 189.48828125 175.4921875 C186.75795998 172.75758001 183.89863747 170.24822543 180.9609375 167.7421875 C177.90908012 165.03077636 175.08855234 162.09662853 172.22265625 159.19140625 C169.5729856 156.57898932 166.78827197 154.16697379 163.96484375 151.74609375 C161.18438168 149.27518611 158.60881782 146.6183306 156 143.96875 C154.06108998 142.06013545 152.06300449 140.27289448 150 138.5 C147.21103607 136.10323412 144.58009215 133.62040609 142 131 C139.44009866 128.40017817 136.8322046 125.93731602 134.0625 123.5625 C130.25175937 120.28869347 126.74921835 116.76636029 123.22265625 113.19140625 C120.5729856 110.57898932 117.78827197 108.16697379 114.96484375 105.74609375 C112.18300852 103.27396582 109.60624049 100.61569453 106.99609375 97.96484375 C105.07892823 96.07769256 103.10424678 94.31314625 101.0625 92.5625 C98.07198284 89.99334729 95.26883316 87.30682744 92.5 84.5 C89.7514401 81.71378859 86.97140209 79.04691608 84 76.5 C80.20641267 73.24835372 76.72607353 69.74286906 73.21875 66.1875 C71.20569368 64.20279658 69.14553597 62.33903084 67 60.5 C63.20641267 57.24835372 59.72607353 53.74286906 56.21875 50.1875 C54.20569368 48.20279658 52.14553597 46.33903084 50 44.5 C46.20641267 41.24835372 42.72607353 37.74286906 39.21875 34.1875 C37.20569368 32.20279658 35.14553597 30.33903084 33 28.5 C30.02859791 25.95308392 27.2485599 23.28621141 24.5 20.5 C21.1137453 17.07308701 17.63920512 13.8321487 13.98046875 10.69921875 C12.59402663 9.50966782 11.22274752 8.30231999 9.86328125 7.08203125 C9.16589844 6.45683594 8.46851563 5.83164062 7.75 5.1875 C7.12609375 4.62417969 6.5021875 4.06085937 5.859375 3.48046875 C3.77120951 1.71287996 3.77120951 1.71287996 0 0 Z " fill="#E7EAEA" transform="translate(28,50)"/>
<path d="M0 0 C8.39276787 7.19380104 16.62481514 14.50645408 24.3671875 22.3984375 C26.14130008 24.13859577 27.98986551 25.75600214 29.875 27.375 C32.8846753 29.96634205 35.71088616 32.67254783 38.5 35.5 C41.22829407 38.26560408 43.98516834 40.91287031 46.9375 43.4375 C51.03058303 46.9446944 54.77224704 50.75725158 58.55859375 54.58984375 C61.27202727 57.26854532 64.10777023 59.74608118 67.00390625 62.22265625 C70.06803813 64.95099285 72.90481832 67.89667908 75.78515625 70.81640625 C77.77659461 72.77974671 79.81302578 74.62079669 81.9375 76.4375 C86.03058303 79.9446944 89.77224704 83.75725158 93.55859375 87.58984375 C96.27202727 90.26854532 99.10777023 92.74608118 102.00390625 95.22265625 C105.05919478 97.94311864 107.88851011 100.87898864 110.7578125 103.79296875 C113.48056586 106.47303086 116.33952131 108.94960109 119.2734375 111.39453125 C121.12222547 113.11365309 122.54487913 114.9422984 124 117 C123.57332031 117.36609375 123.14664063 117.7321875 122.70703125 118.109375 C114.07276781 125.58646911 105.596469 133.27755618 97.59765625 141.43359375 C95.83533729 143.16144192 93.99696908 144.76679173 92.125 146.375 C89.1153247 148.96634205 86.28911384 151.67254783 83.5 154.5 C80.13885518 157.9071879 76.66298797 161.07458174 73.03125 164.1875 C70.76361428 166.2109288 68.6342305 168.33653347 66.5 170.5 C63.13885518 173.9071879 59.66298797 177.07458174 56.03125 180.1875 C52.96025683 182.92777083 50.11213124 185.87946902 47.22265625 188.80859375 C44.5729856 191.42101068 41.78827197 193.83302621 38.96484375 196.25390625 C36.26621639 198.65209001 33.75685425 201.21611524 31.25 203.8125 C29.35002107 205.65970174 27.41322697 207.37523917 25.40234375 209.09765625 C20.19638506 213.61801686 15.39976115 218.52957031 10.5625 223.4375 C8.77440574 225.25093932 6.98416643 227.06226701 5.19140625 228.87109375 C4.01880249 230.06109985 4.01880249 230.06109985 2.82250977 231.27514648 C1 233 1 233 0 233 C0 156.11 0 79.22 0 0 Z " fill="#E0E2E3" transform="translate(49,140)"/>
<path d="M0 0 C-1.42557621 3.17903494 -3.1773152 5.53658432 -5.5 8.125 C-6.1084375 8.80820313 -6.716875 9.49140625 -7.34375 10.1953125 C-8.53304924 11.49119988 -9.75626434 12.75626434 -11 14 C-10.49220121 9.60168121 -9.03107731 7.42448394 -6.0625 4.1875 C-5.35222656 3.39730469 -4.64195313 2.60710938 -3.91015625 1.79296875 C-2 0 -2 0 0 0 Z " fill="#FA8C9C" transform="translate(13,56)"/>
</svg>
