<svg xmlns="http://www.w3.org/2000/svg" viewBox="0 0 512 512"><path fill="#808080" stroke="#fcb54e" d="M113 1.079C74.507 4.732 51.136 14.422 31.887 34.71 15.835 51.63 7.712 68.025 2.76 93.5.65 104.359.618 106.32.257 246c-.419 162.137-.444 161.622 8.909 190.88 12.833 40.145 43.845 66.401 83.902 71.033 42.912 4.962 270.414 5.678 320.432 1.008 52.309-4.883 88.156-41.138 97.241-98.348 2.731-17.196 2.694-293.455-.041-309.884-9.809-58.91-46.449-93.832-104.556-99.652C393.808-.198 126.059-.16 113 1.079m69 67.049c-75.985 5.112-109.111 38.07-113.99 113.411-1.278 19.743-1.278 127.577.001 147.961 4.82 76.83 36.488 108.769 113.489 114.458 18.091 1.336 132.288 1.353 149.105.021 52.891-4.188 82.542-20.445 99.759-54.696 12.294-24.456 14.618-45.966 14.618-135.283 0-94.827-3.397-117.199-21.688-142.844-19.471-27.298-46.72-40.025-92.368-43.141-17.19-1.174-131.084-1.087-148.926.113m45.5 32.946c-38.258.517-53.623 1.082-61.5 2.26-43.134 6.454-56.584 22.386-62.612 74.166-2.059 17.682-3.06 111.092-1.495 139.45 4.124 74.719 18.665 89.108 94.107 93.123 32.862 1.749 138.976.748 150.916-1.423 38.07-6.923 56.844-26.197 62-63.65 3.046-22.13 4.57-127.478 2.198-152-7.54-77.966-28.387-94.002-120.614-92.775l-63 .849M.486 253c0 77.275.119 108.888.264 70.25.145-38.637.145-101.862 0-140.5C.605 144.113.486 175.725.486 253M348 134.541c-21.783 9.767-15.059 42.527 8.71 42.437 28.784-.109 30.141-42.461 1.401-43.717-4.405-.193-7.779.234-10.111 1.28m-104.528 25.433c-79.042 11.223-112.16 106.999-56.606 163.704 51.145 52.204 139.361 30.77 161.435-39.224 20.878-66.2-36.386-134.198-104.829-124.48m-5.27 35.048c-38.035 9.965-56.059 54.053-37.562 91.88 17.559 35.908 70.945 43.648 100.018 14.502 28.774-28.848 21.645-82.922-13.344-101.218-13.641-7.134-33.589-9.231-49.112-5.164" fill-rule="evenodd"/><path fill="#808080" stroke="#fb8046" d="M123 .667c-22.447 1.409-45.18 5.812-58.148 11.26-20.373 8.56-41.07 28.519-51.406 49.573C2.431 83.938.872 95.844.28 162.04l-.469 52.541 32.7 37.771c17.985 20.774 32.847 37.624 33.027 37.444.179-.18.579-23.945.888-52.812.771-72.012 2.307-85.966 11.988-108.921 15.701-37.227 46.263-55.4 101.086-60.107 21.902-1.88 157.194-.755 170.5 1.419 52.854 8.632 82.641 37.237 91.551 87.914 4.012 22.822 4.866 165.86 1.14 190.981-7.98 53.8-35.143 83.269-85.428 92.679-19.262 3.604-30.867 4.182-93.726 4.666-34.08.263-62.134.649-62.343.858-.209.209 12.369 15.106 27.951 33.106l28.331 32.726 57.012-.626c81.943-.899 107.028-2.492 123.012-7.812 42.942-14.292 69.964-52.09 73.431-102.716 1.449-21.159 1.749-279.314.339-292.151-6.724-61.222-39.768-97.207-98.351-107.102C406.039.736 139.901-.394 123 .667m61.909 101.354c-61.667 3.889-76.35 19.456-82.045 86.979-1.447 17.162-1.55 118.894-.136 135.035l.923 10.534 31.328 36.199c26.235 30.315 31.831 36.284 34.424 36.724 16.197 2.745 131.324 4.653 158.597 2.628 53.606-3.981 76.333-23.435 80.933-69.279 3.452-34.396 3.872-135.355.664-159.581-5.4-40.782-15.474-59.974-36.792-70.091-8.569-4.066-12.615-5.281-26.305-7.896-9.111-1.74-138.018-2.739-161.591-1.252M.462 168c0 26.125.129 36.813.287 23.75.158-13.062.158-34.437 0-47.5C.591 131.188.462 141.875.462 168m349.878-34.604c-18.488 5.953-21.862 30.341-5.622 40.64 15.206 9.644 34.625-1.037 34.61-19.036-.013-14.818-15.113-26.071-28.988-21.604M238.5 160.407c-76.9 14.929-106.261 108.218-51.5 163.629 38.225 38.678 99.151 38.903 137.545.509 46.993-46.993 33.701-126.386-26.045-155.566-18.069-8.824-41.475-12.168-60-8.572m7 33.222c-32.305 5.021-52.713 31.173-51.283 65.719 1.672 40.377 34.732 65.867 75.445 58.17 61.647-11.655 65.683-103.88 5.338-121.974-5.439-1.631-23.699-2.816-29.5-1.915" fill-rule="evenodd"/><path fill="#808080" stroke="#ec4c62" d="M127 .659C75.451 3.462 43.793 17.045 24.171 44.778L22.244 47.5l29.869 34.497c16.428 18.973 30.211 34.598 30.628 34.721.417.123 1.884-1.602 3.259-3.833 16.182-26.26 45.208-40.745 90-44.915 29.572-2.753 153.638-1.693 175.116 1.496 52.521 7.799 83.019 38.687 91.597 92.769 2.694 16.985 2.711 170.442.021 187.387-7.744 48.781-30.413 76.484-72.537 88.645l-7.816 2.257 29.06 33.552 29.059 33.553 5-.89c43.32-7.711 75.46-43.472 84.234-93.727 2.677-15.331 2.585-300.853-.101-315.512-8.627-47.079-35.693-78.944-77.311-91.02C411.938.565 415.754.704 268.5.496 194.25.391 130.575.464 127 .659m68 101.344c-36.612 1.359-54.179 5.405-67.465 15.538-6.994 5.335-17.535 22.99-17.535 29.371 0 1.119 12.219 16.069 28.661 35.065l28.661 33.115 3.167-5.928c11.948-22.362 34.974-40.363 60.578-47.36 11.409-3.117 37.537-3.335 48.433-.402C323.441 173.226 353 211.27 353 256c0 40.799-25.657 77.903-63.294 91.531l-5.93 2.147 25.779 29.76 25.78 29.759 6.582-.7c31.472-3.346 53.007-18.449 61.62-43.216 5.339-15.352 6.979-36.365 8.102-103.781 1.998-119.915-11.146-150.06-69.139-158.572-9.581-1.406-116.477-2.077-147.5-.925m154.759 31.36c-18.539 6.913-21.356 29.539-5.1 40.965 15.589 10.956 38.097-4.057 34.854-23.25-2.212-13.092-17.592-22.249-29.754-17.715m-103.603 60.673c-25.192 3.429-45.922 22.614-50.334 46.585l-1.127 6.12 31.104 35.931 31.105 35.932 7.298-.702c42.855-4.121 66.539-50.584 46.785-91.78-11.157-23.266-36.712-35.913-64.831-32.086" fill-rule="evenodd"/></svg>