<svg width="35" height="35" viewBox="0 0 35 35" fill="none" xmlns="http://www.w3.org/2000/svg">
<path d="M10.893 14.9188H32.1582C33.579 14.9188 34.763 16.1029 34.763 17.5237C34.763 18.9445 33.579 20.1286 32.1582 20.1286H10.893C9.47212 20.1286 8.28809 18.9445 8.28809 17.5237C8.28809 16.0555 9.42476 14.9188 10.893 14.9188Z" fill="#1E1E1E"/>
<path d="M20.0812 0H32.111C33.5318 0 34.7158 1.18403 34.7158 2.60487C34.7158 4.02571 33.5318 5.20974 32.111 5.20974H20.0812C18.6604 5.20974 17.4763 4.02571 17.4763 2.60487C17.4763 1.18403 18.6604 0 20.0812 0Z" fill="#1E1E1E"/>
<path d="M2.60487 29.7902H32.1583C33.5792 29.7902 34.7632 30.9742 34.7632 32.395C34.7632 33.8159 33.5792 34.9999 32.1583 34.9999H2.60487C1.18403 34.9999 0 33.8159 0 32.395C0 30.9742 1.13667 29.7902 2.60487 29.7902Z" fill="#1E1E1E"/>
</svg>
