<?xml version="1.0" encoding="UTF-8"?>
<svg version="1.1" xmlns="http://www.w3.org/2000/svg" width="512" height="512">
<path d="M0 0 C168.96 0 337.92 0 512 0 C512 168.96 512 337.92 512 512 C343.04 512 174.08 512 0 512 C0 343.04 0 174.08 0 0 Z " fill="#000000" transform="translate(0,0)"/>
<path d="M0 0 C1.77314074 1.5361895 3.52251147 3.10014697 5.25 4.6875 C5.73952148 5.13464355 6.22904297 5.58178711 6.73339844 6.04248047 C27.95462424 25.64217316 40.91014473 52.29695368 42.37792969 81.20727539 C43.27780507 110.98204836 34.6862556 139.44708059 14.25 161.6875 C13.80285645 162.17702148 13.35571289 162.66654297 12.89501953 163.17089844 C-5.48646066 183.07312588 -31.32969812 196.67032921 -58.65722656 197.80859375 C-93.15275257 198.85296329 -120.54174953 189.22663138 -146.08984375 165.40625 C-162.23018593 148.91039368 -171.77727006 128.26632482 -175.75 105.6875 C-175.93175781 104.81351562 -176.11351562 103.93953125 -176.30078125 103.0390625 C-180.16420834 74.2145369 -173.44577552 44.90131304 -155.75 21.6875 C-138.24124017 -1.21615525 -113.96348837 -16.42261135 -85.52734375 -21.9375 C-54.67549795 -25.00035129 -24.72106521 -19.50178182 0 0 Z " fill="#FEFEFE" transform="translate(238.75,168.3125)"/>
<path d="M0 0 C20.97526194 12.16451506 29.75107118 36.05632753 35.84765625 58.171875 C39.01482968 71.02965371 40.22392692 83.82872531 40.14355469 97.02368164 C40.1328336 99.10527768 40.14353215 101.18600783 40.15625 103.26757812 C40.17135039 116.44615435 38.79684271 129.3541539 35.6328125 142.171875 C35.308573 143.49759521 35.308573 143.49759521 34.9777832 144.85009766 C29.61564124 166.02721304 20.60884555 188.80471475 0.984375 200.55859375 C0.29085937 200.92597656 -0.40265625 201.29335938 -1.1171875 201.671875 C-1.74882812 202.00832031 -2.38046875 202.34476563 -3.03125 202.69140625 C-9.4424254 205.5803927 -16.95542778 205.91087217 -23.67578125 203.91015625 C-28.14837342 202.00195082 -32.19531584 199.54791422 -36.1171875 196.671875 C-37.0453125 196.011875 -37.9734375 195.351875 -38.9296875 194.671875 C-53.17504938 182.32341509 -60.24230861 162.34605997 -65.1171875 144.671875 C-65.32891602 143.92067383 -65.54064453 143.16947266 -65.75878906 142.39550781 C-72.37437418 117.60016896 -72.05459299 85.61005366 -66.1171875 60.671875 C-65.92382812 59.85638184 -65.73046875 59.04088867 -65.53125 58.20068359 C-60.32373303 37.22998063 -51.21634647 13.66037586 -32.1171875 1.671875 C-21.30507842 -4.4713688 -11.41603568 -5.30562494 0 0 Z " fill="#FDFDFD" transform="translate(361.1171875,155.328125)"/>
<path d="M0 0 C5.26645933 2.50156818 7.50648796 6.71715694 9.5625 11.9375 C18.52265896 38.6728731 18.73162104 67.10939451 18.75 95 C18.75100708 96.07000244 18.75201416 97.14000488 18.75305176 98.24243164 C18.73833427 121.47008981 18.08844372 144.74169934 11.5 167.1875 C11.19191406 168.321875 10.88382812 169.45625 10.56640625 170.625 C8.6373038 177.15673277 6.32395228 181.36354772 1.5 186.1875 C-2.20190056 185.97596283 -3.38037708 185.31047162 -6.01171875 182.60546875 C-8.67378525 179.26261635 -9.98287982 175.70687317 -11.125 171.625 C-11.31578125 170.99787109 -11.5065625 170.37074219 -11.703125 169.72460938 C-12.34557876 167.55525719 -12.92999695 165.37704606 -13.5 163.1875 C-13.74951416 162.23335205 -13.99902832 161.2792041 -14.25610352 160.29614258 C-16.32488989 151.91765406 -17.46289047 143.59108801 -18.1875 135 C-18.25003967 134.27472107 -18.31257935 133.54944214 -18.37701416 132.80218506 C-26.62596025 33.78566507 -26.62596025 33.78566507 -6.31689453 3.41845703 C-4.33604466 1.17853142 -3.00286153 0.22521461 0 0 Z " fill="#FCFCFC" transform="translate(431.5,162.8125)"/>
</svg>
