<svg width="70" height="70" viewBox="0 0 70 70" fill="none" xmlns="http://www.w3.org/2000/svg">
<path d="M54.6875 37.1875H15.3125C13.5034 37.1875 12.0312 38.6597 12.0312 40.4688V66.7188C12.0312 68.5278 13.5034 70 15.3125 70H54.6875C56.4966 70 57.9688 68.5278 57.9688 66.7188V40.4688C57.9688 38.6597 56.4966 37.1875 54.6875 37.1875ZM55.7812 66.7188C55.7812 67.3225 55.2912 67.8125 54.6875 67.8125H15.3125C14.7098 67.8125 14.2188 67.3225 14.2188 66.7188V40.4688C14.2188 39.865 14.7098 39.375 15.3125 39.375H54.6875C55.2912 39.375 55.7812 39.865 55.7812 40.4688V66.7188Z" fill="url(#paint0_linear_29_271)"/>
<path d="M35 65.625C35.6041 65.625 36.0938 65.1353 36.0938 64.5312C36.0938 63.9272 35.6041 63.4375 35 63.4375C34.3959 63.4375 33.9062 63.9272 33.9062 64.5312C33.9062 65.1353 34.3959 65.625 35 65.625Z" fill="url(#paint1_linear_29_271)"/>
<path d="M39.375 65.625C39.9791 65.625 40.4688 65.1353 40.4688 64.5312C40.4688 63.9272 39.9791 63.4375 39.375 63.4375C38.7709 63.4375 38.2812 63.9272 38.2812 64.5312C38.2812 65.1353 38.7709 65.625 39.375 65.625Z" fill="url(#paint2_linear_29_271)"/>
<path d="M30.625 65.625C31.2291 65.625 31.7188 65.1353 31.7188 64.5312C31.7188 63.9272 31.2291 63.4375 30.625 63.4375C30.0209 63.4375 29.5312 63.9272 29.5312 64.5312C29.5312 65.1353 30.0209 65.625 30.625 65.625Z" fill="url(#paint3_linear_29_271)"/>
<path d="M21.875 32.8125C24.2878 32.8125 26.25 30.8503 26.25 28.4375V27.3438C26.25 26.7389 25.76 26.25 25.1562 26.25H24.0625V14.2188C24.0625 12.4097 22.5903 10.9375 20.7812 10.9375H5.46875C3.65969 10.9375 2.1875 12.4097 2.1875 14.2188V26.25H1.09375C0.49 26.25 0 26.7389 0 27.3438V28.4375C0 30.8503 1.96219 32.8125 4.375 32.8125H21.875ZM4.375 14.2188C4.375 13.615 4.86609 13.125 5.46875 13.125H20.7812C21.3839 13.125 21.875 13.615 21.875 14.2188V26.25H4.375V14.2188ZM2.1875 28.4375H24.0625C24.0625 29.6439 23.0814 30.625 21.875 30.625H4.375C3.16859 30.625 2.1875 29.6439 2.1875 28.4375Z" fill="url(#paint4_linear_29_271)"/>
<path d="M30.625 24.0625H39.375C41.1841 24.0625 42.6562 22.5903 42.6562 20.7812V3.28125C42.6562 1.47219 41.1841 0 39.375 0H30.625C28.8159 0 27.3438 1.47219 27.3438 3.28125V20.7812C27.3438 22.5903 28.8159 24.0625 30.625 24.0625ZM29.5312 3.28125C29.5312 2.6775 30.0223 2.1875 30.625 2.1875H39.375C39.9788 2.1875 40.4688 2.6775 40.4688 3.28125V20.7812C40.4688 21.385 39.9788 21.875 39.375 21.875H30.625C30.0223 21.875 29.5312 21.385 29.5312 20.7812V3.28125Z" fill="url(#paint5_linear_29_271)"/>
<path d="M68.9062 10.9375H47.0312C46.4264 10.9375 45.9375 11.4264 45.9375 12.0312V27.3438C45.9375 27.9486 46.4264 28.4375 47.0312 28.4375H56.875V30.625H54.6875C54.0827 30.625 53.5938 31.1139 53.5938 31.7188C53.5938 32.3236 54.0827 32.8125 54.6875 32.8125H61.25C61.8548 32.8125 62.3438 32.3236 62.3438 31.7188C62.3438 31.1139 61.8548 30.625 61.25 30.625H59.0625V28.4375H68.9062C69.5111 28.4375 70 27.9486 70 27.3438V12.0312C70 11.4264 69.5111 10.9375 68.9062 10.9375ZM67.8125 26.25H48.125V13.125H67.8125V26.25Z" fill="url(#paint6_linear_29_271)"/>
<path d="M18.5938 50.3125H31.7188C32.3225 50.3125 32.8125 49.8236 32.8125 49.2188C32.8125 48.6139 32.3225 48.125 31.7188 48.125H18.5938C17.99 48.125 17.5 48.6139 17.5 49.2188C17.5 49.8236 17.99 50.3125 18.5938 50.3125Z" fill="url(#paint7_linear_29_271)"/>
<path d="M18.5938 54.6875H40.4688C41.0736 54.6875 41.5625 54.1986 41.5625 53.5938C41.5625 52.9889 41.0736 52.5 40.4688 52.5H18.5938C17.99 52.5 17.5 52.9889 17.5 53.5938C17.5 54.1986 17.99 54.6875 18.5938 54.6875Z" fill="url(#paint8_linear_29_271)"/>
<path d="M47.0312 56.875H18.5938C17.99 56.875 17.5 57.3639 17.5 57.9688C17.5 58.5736 17.99 59.0625 18.5938 59.0625H47.0312C47.6361 59.0625 48.125 58.5736 48.125 57.9688C48.125 57.3639 47.6361 56.875 47.0312 56.875Z" fill="url(#paint9_linear_29_271)"/>
<path d="M51.4062 43.75H22.9688C22.365 43.75 21.875 44.2389 21.875 44.8438C21.875 45.4486 22.365 45.9375 22.9688 45.9375H51.4062C52.0111 45.9375 52.5 45.4486 52.5 44.8438C52.5 44.2389 52.0111 43.75 51.4062 43.75Z" fill="url(#paint10_linear_29_271)"/>
<path d="M51.4062 48.125H36.0938C35.49 48.125 35 48.6139 35 49.2188C35 49.8236 35.49 50.3125 36.0938 50.3125H51.4062C52.0111 50.3125 52.5 49.8236 52.5 49.2188C52.5 48.6139 52.0111 48.125 51.4062 48.125Z" fill="url(#paint11_linear_29_271)"/>
<path d="M51.4062 52.5H44.8438C44.2389 52.5 43.75 52.9889 43.75 53.5938C43.75 54.1986 44.2389 54.6875 44.8438 54.6875H51.4062C52.0111 54.6875 52.5 54.1986 52.5 53.5938C52.5 52.9889 52.0111 52.5 51.4062 52.5Z" fill="url(#paint12_linear_29_271)"/>
<path d="M18.5938 16.4062H9.84375C9.24 16.4062 8.75 16.8952 8.75 17.5C8.75 18.1048 9.24 18.5938 9.84375 18.5938H18.5938C19.1975 18.5938 19.6875 18.1048 19.6875 17.5C19.6875 16.8952 19.1975 16.4062 18.5938 16.4062Z" fill="url(#paint13_linear_29_271)"/>
<path d="M18.5938 20.7812H7.65625C7.0525 20.7812 6.5625 21.2702 6.5625 21.875C6.5625 22.4798 7.0525 22.9688 7.65625 22.9688H18.5938C19.1975 22.9688 19.6875 22.4798 19.6875 21.875C19.6875 21.2702 19.1975 20.7812 18.5938 20.7812Z" fill="url(#paint14_linear_29_271)"/>
<path d="M32.8125 8.75H37.1875C37.7923 8.75 38.2812 8.26109 38.2812 7.65625C38.2812 7.05141 37.7923 6.5625 37.1875 6.5625H32.8125C32.2088 6.5625 31.7188 7.05141 31.7188 7.65625C31.7188 8.26109 32.2088 8.75 32.8125 8.75Z" fill="url(#paint15_linear_29_271)"/>
<path d="M32.8125 13.125H37.1875C37.7923 13.125 38.2812 12.6361 38.2812 12.0312C38.2812 11.4264 37.7923 10.9375 37.1875 10.9375H32.8125C32.2088 10.9375 31.7188 11.4264 31.7188 12.0312C31.7188 12.6361 32.2088 13.125 32.8125 13.125Z" fill="url(#paint16_linear_29_271)"/>
<path d="M32.8125 17.5H37.1875C37.7923 17.5 38.2812 17.0111 38.2812 16.4062C38.2812 15.8014 37.7923 15.3125 37.1875 15.3125H32.8125C32.2088 15.3125 31.7188 15.8014 31.7188 16.4062C31.7188 17.0111 32.2088 17.5 32.8125 17.5Z" fill="url(#paint17_linear_29_271)"/>
<path d="M54.6875 18.5938H63.4375C64.0423 18.5938 64.5312 18.1048 64.5312 17.5C64.5312 16.8952 64.0423 16.4062 63.4375 16.4062H54.6875C54.0827 16.4062 53.5938 16.8952 53.5938 17.5C53.5938 18.1048 54.0827 18.5938 54.6875 18.5938Z" fill="url(#paint18_linear_29_271)"/>
<path d="M52.5 22.9688H63.4375C64.0423 22.9688 64.5312 22.4798 64.5312 21.875C64.5312 21.2702 64.0423 20.7812 63.4375 20.7812H52.5C51.8952 20.7812 51.4062 21.2702 51.4062 21.875C51.4062 22.4798 51.8952 22.9688 52.5 22.9688Z" fill="url(#paint19_linear_29_271)"/>
<path d="M33.9062 27.3438V33.9062C33.9062 34.5111 34.3963 35 35 35C35.6037 35 36.0938 34.5111 36.0938 33.9062V27.3438C36.0938 26.7389 35.6037 26.25 35 26.25C34.3963 26.25 33.9062 26.7389 33.9062 27.3438Z" fill="url(#paint20_linear_29_271)"/>
<path d="M8.75 45.9375H6.5625C5.95984 45.9375 5.46875 45.4475 5.46875 44.8438V36.0938C5.46875 35.4889 4.97875 35 4.375 35C3.77125 35 3.28125 35.4889 3.28125 36.0938V44.8438C3.28125 46.6528 4.75344 48.125 6.5625 48.125H8.75C9.35375 48.125 9.84375 47.6361 9.84375 47.0312C9.84375 46.4264 9.35375 45.9375 8.75 45.9375Z" fill="url(#paint21_linear_29_271)"/>
<path d="M65.625 35C65.0202 35 64.5312 35.4889 64.5312 36.0938V44.8438C64.5312 45.4475 64.0412 45.9375 63.4375 45.9375H61.25C60.6452 45.9375 60.1562 46.4264 60.1562 47.0312C60.1562 47.6361 60.6452 48.125 61.25 48.125H63.4375C65.2466 48.125 66.7188 46.6528 66.7188 44.8438V36.0938C66.7188 35.4889 66.2298 35 65.625 35Z" fill="url(#paint22_linear_29_271)"/>
<defs>
<linearGradient id="paint0_linear_29_271" x1="18.5937" y1="44.6875" x2="40.3209" y2="75.1056" gradientUnits="userSpaceOnUse">
<stop stop-color="#2799D5"/>
<stop offset="0.315" stop-color="#00A660"/>
<stop offset="0.65" stop-color="#FD7900"/>
<stop offset="1" stop-color="#FDC500"/>
</linearGradient>
<linearGradient id="paint1_linear_29_271" x1="34.2187" y1="63.9375" x2="35.75" y2="65.4687" gradientUnits="userSpaceOnUse">
<stop stop-color="#2799D5"/>
<stop offset="0.315" stop-color="#00A660"/>
<stop offset="0.65" stop-color="#FD7900"/>
<stop offset="1" stop-color="#FDC500"/>
</linearGradient>
<linearGradient id="paint2_linear_29_271" x1="38.5937" y1="63.9375" x2="40.125" y2="65.4687" gradientUnits="userSpaceOnUse">
<stop stop-color="#2799D5"/>
<stop offset="0.315" stop-color="#00A660"/>
<stop offset="0.65" stop-color="#FD7900"/>
<stop offset="1" stop-color="#FDC500"/>
</linearGradient>
<linearGradient id="paint3_linear_29_271" x1="29.8437" y1="63.9375" x2="31.375" y2="65.4687" gradientUnits="userSpaceOnUse">
<stop stop-color="#2799D5"/>
<stop offset="0.315" stop-color="#00A660"/>
<stop offset="0.65" stop-color="#FD7900"/>
<stop offset="1" stop-color="#FDC500"/>
</linearGradient>
<linearGradient id="paint4_linear_29_271" x1="3.75" y1="15.9375" x2="18.8115" y2="34.0113" gradientUnits="userSpaceOnUse">
<stop stop-color="#2799D5"/>
<stop offset="0.315" stop-color="#00A660"/>
<stop offset="0.65" stop-color="#FD7900"/>
<stop offset="1" stop-color="#FDC500"/>
</linearGradient>
<linearGradient id="paint5_linear_29_271" x1="29.5312" y1="5.5" x2="44.7897" y2="15.2099" gradientUnits="userSpaceOnUse">
<stop stop-color="#2799D5"/>
<stop offset="0.315" stop-color="#00A660"/>
<stop offset="0.65" stop-color="#FD7900"/>
<stop offset="1" stop-color="#FDC500"/>
</linearGradient>
<linearGradient id="paint6_linear_29_271" x1="49.375" y1="15.9375" x2="64.6182" y2="32.705" gradientUnits="userSpaceOnUse">
<stop stop-color="#2799D5"/>
<stop offset="0.315" stop-color="#00A660"/>
<stop offset="0.65" stop-color="#FD7900"/>
<stop offset="1" stop-color="#FDC500"/>
</linearGradient>
<linearGradient id="paint7_linear_29_271" x1="19.6875" y1="48.625" x2="20.1162" y2="51.6262" gradientUnits="userSpaceOnUse">
<stop stop-color="#2799D5"/>
<stop offset="0.315" stop-color="#00A660"/>
<stop offset="0.65" stop-color="#FD7900"/>
<stop offset="1" stop-color="#FDC500"/>
</linearGradient>
<linearGradient id="paint8_linear_29_271" x1="20.9375" y1="53" x2="21.2136" y2="56.0374" gradientUnits="userSpaceOnUse">
<stop stop-color="#2799D5"/>
<stop offset="0.315" stop-color="#00A660"/>
<stop offset="0.65" stop-color="#FD7900"/>
<stop offset="1" stop-color="#FDC500"/>
</linearGradient>
<linearGradient id="paint9_linear_29_271" x1="21.875" y1="57.375" x2="22.0926" y2="60.422" gradientUnits="userSpaceOnUse">
<stop stop-color="#2799D5"/>
<stop offset="0.315" stop-color="#00A660"/>
<stop offset="0.65" stop-color="#FD7900"/>
<stop offset="1" stop-color="#FDC500"/>
</linearGradient>
<linearGradient id="paint10_linear_29_271" x1="26.25" y1="44.25" x2="26.4676" y2="47.297" gradientUnits="userSpaceOnUse">
<stop stop-color="#2799D5"/>
<stop offset="0.315" stop-color="#00A660"/>
<stop offset="0.65" stop-color="#FD7900"/>
<stop offset="1" stop-color="#FDC500"/>
</linearGradient>
<linearGradient id="paint11_linear_29_271" x1="37.5" y1="48.625" x2="37.8769" y2="51.6404" gradientUnits="userSpaceOnUse">
<stop stop-color="#2799D5"/>
<stop offset="0.315" stop-color="#00A660"/>
<stop offset="0.65" stop-color="#FD7900"/>
<stop offset="1" stop-color="#FDC500"/>
</linearGradient>
<linearGradient id="paint12_linear_29_271" x1="45" y1="53" x2="45.7206" y2="55.8824" gradientUnits="userSpaceOnUse">
<stop stop-color="#2799D5"/>
<stop offset="0.315" stop-color="#00A660"/>
<stop offset="0.65" stop-color="#FD7900"/>
<stop offset="1" stop-color="#FDC500"/>
</linearGradient>
<linearGradient id="paint13_linear_29_271" x1="10.3125" y1="16.9062" x2="10.9014" y2="19.851" gradientUnits="userSpaceOnUse">
<stop stop-color="#2799D5"/>
<stop offset="0.315" stop-color="#00A660"/>
<stop offset="0.65" stop-color="#FD7900"/>
<stop offset="1" stop-color="#FDC500"/>
</linearGradient>
<linearGradient id="paint14_linear_29_271" x1="8.4375" y1="21.2812" x2="8.93412" y2="24.261" gradientUnits="userSpaceOnUse">
<stop stop-color="#2799D5"/>
<stop offset="0.315" stop-color="#00A660"/>
<stop offset="0.65" stop-color="#FD7900"/>
<stop offset="1" stop-color="#FDC500"/>
</linearGradient>
<linearGradient id="paint15_linear_29_271" x1="32.6562" y1="7.0625" x2="33.575" y2="9.81875" gradientUnits="userSpaceOnUse">
<stop stop-color="#2799D5"/>
<stop offset="0.315" stop-color="#00A660"/>
<stop offset="0.65" stop-color="#FD7900"/>
<stop offset="1" stop-color="#FDC500"/>
</linearGradient>
<linearGradient id="paint16_linear_29_271" x1="32.6562" y1="11.4375" x2="33.575" y2="14.1937" gradientUnits="userSpaceOnUse">
<stop stop-color="#2799D5"/>
<stop offset="0.315" stop-color="#00A660"/>
<stop offset="0.65" stop-color="#FD7900"/>
<stop offset="1" stop-color="#FDC500"/>
</linearGradient>
<linearGradient id="paint17_linear_29_271" x1="32.6562" y1="15.8125" x2="33.575" y2="18.5687" gradientUnits="userSpaceOnUse">
<stop stop-color="#2799D5"/>
<stop offset="0.315" stop-color="#00A660"/>
<stop offset="0.65" stop-color="#FD7900"/>
<stop offset="1" stop-color="#FDC500"/>
</linearGradient>
<linearGradient id="paint18_linear_29_271" x1="55.1562" y1="16.9062" x2="55.7452" y2="19.851" gradientUnits="userSpaceOnUse">
<stop stop-color="#2799D5"/>
<stop offset="0.315" stop-color="#00A660"/>
<stop offset="0.65" stop-color="#FD7900"/>
<stop offset="1" stop-color="#FDC500"/>
</linearGradient>
<linearGradient id="paint19_linear_29_271" x1="53.2812" y1="21.2812" x2="53.7779" y2="24.261" gradientUnits="userSpaceOnUse">
<stop stop-color="#2799D5"/>
<stop offset="0.315" stop-color="#00A660"/>
<stop offset="0.65" stop-color="#FD7900"/>
<stop offset="1" stop-color="#FDC500"/>
</linearGradient>
<linearGradient id="paint20_linear_29_271" x1="34.2187" y1="28.25" x2="37.1011" y2="28.9706" gradientUnits="userSpaceOnUse">
<stop stop-color="#2799D5"/>
<stop offset="0.315" stop-color="#00A660"/>
<stop offset="0.65" stop-color="#FD7900"/>
<stop offset="1" stop-color="#FDC500"/>
</linearGradient>
<linearGradient id="paint21_linear_29_271" x1="4.21875" y1="38" x2="11.5687" y2="41.675" gradientUnits="userSpaceOnUse">
<stop stop-color="#2799D5"/>
<stop offset="0.315" stop-color="#00A660"/>
<stop offset="0.65" stop-color="#FD7900"/>
<stop offset="1" stop-color="#FDC500"/>
</linearGradient>
<linearGradient id="paint22_linear_29_271" x1="61.0937" y1="38" x2="68.4437" y2="41.675" gradientUnits="userSpaceOnUse">
<stop stop-color="#2799D5"/>
<stop offset="0.315" stop-color="#00A660"/>
<stop offset="0.65" stop-color="#FD7900"/>
<stop offset="1" stop-color="#FDC500"/>
</linearGradient>
</defs>
</svg>
