<svg width="66" height="36" viewBox="0 0 66 36" fill="none" xmlns="http://www.w3.org/2000/svg">
<path d="M49.8881 36C46.6434 36 43.8275 35.4286 41.4406 34.2857C39.0536 33.1429 37.2075 31.5462 35.9021 29.4958C34.634 27.4118 34 24.958 34 22.1345V3.83217C34 1.71572 35.7157 0 37.8322 0V0C39.9486 0 41.6643 1.71572 41.6643 3.83217V22.1345C41.6643 23.6471 42 24.9748 42.6713 26.1176C43.38 27.2269 44.3497 28.084 45.5804 28.6891C46.8485 29.2941 48.3217 29.5966 50 29.5966C51.6783 29.5966 53.1329 29.2941 54.3636 28.6891C55.6317 28.084 56.6014 27.2269 57.2727 26.1176C57.9814 24.9748 58.3357 23.6471 58.3357 22.1345V14.5784C58.3357 12.462 60.0514 10.7463 62.1678 10.7463V10.7463C64.2843 10.7463 66 12.462 66 14.5784V22.1345C66 24.958 65.3287 27.4118 63.986 29.4958C62.6807 31.5462 60.8159 33.1429 58.3916 34.2857C56.0047 35.4286 53.1702 36 49.8881 36Z" fill="url(#paint0_linear_435_9)"/>
<path d="M16.1119 0C19.3566 0 22.1725 0.571426 24.5594 1.71428C26.9464 2.85714 28.7925 4.45378 30.0979 6.5042C31.366 8.58823 32 11.042 32 13.8655V32.1678C32 34.2843 30.2843 36 28.1678 36V36C26.0514 36 24.3357 34.2843 24.3357 32.1678V13.8655C24.3357 12.3529 24 11.0252 23.3287 9.88235C22.62 8.77311 21.6503 7.91597 20.4196 7.31092C19.1515 6.70588 17.6783 6.40336 16 6.40336C14.3217 6.40336 12.8671 6.70588 11.6364 7.31092C10.3683 7.91597 9.3986 8.77311 8.72727 9.88235C8.01865 11.0252 7.66434 12.3529 7.66434 13.8655V21.4216C7.66434 23.538 5.94862 25.2537 3.83217 25.2537V25.2537C1.71572 25.2537 0 23.538 0 21.4216V13.8655C0 11.042 0.671329 8.58823 2.01398 6.5042C3.31935 4.45378 5.18415 2.85714 7.60839 1.71428C9.99534 0.571426 12.8298 0 16.1119 0Z" fill="url(#paint1_linear_435_9)"/>
<circle cx="4" cy="32" r="4" fill="#2799D5"/>
<defs>
<linearGradient id="paint0_linear_435_9" x1="43.5" y1="13.5" x2="66" y2="3.5" gradientUnits="userSpaceOnUse">
<stop stop-color="#FF7900"/>
<stop offset="1" stop-color="#FDD400"/>
</linearGradient>
<linearGradient id="paint1_linear_435_9" x1="10" y1="13.5" x2="32" y2="36" gradientUnits="userSpaceOnUse">
<stop stop-color="#2799D5"/>
<stop offset="1" stop-color="#00A660"/>
</linearGradient>
</defs>
</svg>
