<svg width="28" height="15" viewBox="0 0 28 15" fill="none" xmlns="http://www.w3.org/2000/svg">
<path d="M0.717036 8.21554C0.321925 8.21554 0 7.89426 0 7.49988C0 7.10549 0.321896 6.78421 0.717036 6.78421H25.556L19.9826 1.21672C19.7037 0.938347 19.706 0.485999 19.9849 0.207625C20.2626 -0.0707496 20.717 -0.0684307 20.9948 0.209945L27.7513 6.95834C27.9035 7.09056 28 7.28428 28 7.5C28 7.71572 27.9035 7.90944 27.7513 8.04167L20.9948 14.7901C20.717 15.0684 20.2627 15.0707 19.9849 14.7924C19.706 14.514 19.7037 14.0617 19.9826 13.7833L25.556 8.21579L0.717036 8.21554Z" fill="white"/>
</svg>
