<svg width="70" height="70" viewBox="0 0 70 70" fill="none" xmlns="http://www.w3.org/2000/svg">
<path d="M50.6637 20.8051L35.5473 12.0774C35.2088 11.882 34.7917 11.882 34.454 12.0774L19.3368 20.8051C18.9982 21.0006 18.7897 21.3614 18.7897 21.7523V33.3524L12.478 36.9964C12.1395 37.1919 11.9309 37.5528 11.9309 37.9436V50.6309C11.9309 51.0218 12.1395 51.3827 12.478 51.5781L23.4656 57.9213C23.6349 58.0191 23.8234 58.0675 24.0127 58.0675C24.2012 58.0675 24.3905 58.0183 24.5597 57.9213L35.0003 51.8936L45.4408 57.9213C45.6101 58.0191 45.7986 58.0675 45.9879 58.0675C46.1764 58.0675 46.3656 58.0183 46.5349 57.9213L57.5225 51.5781C57.8611 51.3827 58.0696 51.0218 58.0696 50.6309V37.9436C58.0696 37.5528 57.8611 37.1919 57.5225 36.9964L51.2108 33.3524V21.7523C51.2108 21.3622 51.0023 21.0006 50.6637 20.8051ZM24.0127 43.0242L15.2126 37.9436L24.0127 32.863L32.8127 37.9436L24.0127 43.0242ZM25.1068 44.9186L33.9069 39.838V47.29V49.9992L25.1068 55.0798V44.9186ZM36.0936 47.29V39.838L44.8937 44.9186V55.0798L36.0936 49.9992V47.29ZM45.9879 43.0242L37.1878 37.9436L45.9879 32.863L54.7879 37.9436L45.9879 43.0242ZM46.5342 30.6524C46.1956 30.457 45.7786 30.457 45.4408 30.6524L36.0936 36.0485V31.1379L49.0225 23.6736V32.0897L46.5342 30.6524ZM35.0003 14.288L47.9522 21.7662L35.0003 29.2444L22.0483 21.7662L35.0003 14.288ZM20.9772 23.6736L33.9061 31.1379V36.0485L24.5597 30.6524C24.2212 30.457 23.8041 30.457 23.4664 30.6524L20.978 32.089L20.9772 23.6736ZM14.1192 39.838L22.9193 44.9186V55.0798L14.1192 49.9992V39.838ZM47.0812 55.0798V44.9186L55.8813 39.838V49.9992L47.0812 55.0798ZM6.63181 51.4819C6.93574 52.0036 6.75877 52.6738 6.23709 52.9777C6.06396 53.0785 5.87468 53.1262 5.68771 53.1262C5.31145 53.1262 4.94443 52.9315 4.7413 52.5822C0.984126 46.1282 -0.587068 38.7815 0.196221 31.3365C1.17495 22.0401 5.71541 13.6809 12.9805 7.79931C20.2455 1.91772 29.3664 -0.782245 38.6636 0.196481C44.8983 0.852813 50.7591 3.13112 55.7528 6.81904L54.9949 4.1614C54.8295 3.58047 55.1657 2.97493 55.7466 2.8095C56.3276 2.6433 56.9331 2.98031 57.0986 3.56124L58.8144 9.57594C58.9067 9.89911 58.8452 10.2469 58.6474 10.5193C58.4497 10.7917 58.1381 10.9571 57.8018 10.9694L51.5517 11.1941C51.5386 11.1948 51.5247 11.1948 51.5117 11.1948C50.9253 11.1948 50.4406 10.7309 50.4191 10.1407C50.3975 9.53747 50.8692 9.03041 51.4732 9.00887L54.8641 8.8873C50.0959 5.25016 44.4513 3.00647 38.435 2.37322C29.7211 1.45605 21.1688 3.98751 14.3577 9.50131C7.5459 15.0136 3.28937 22.8495 2.37219 31.565C1.63738 38.5446 3.11086 45.4318 6.63181 51.4819ZM69.8035 38.6631C68.8248 47.9594 64.2843 56.3186 57.0193 62.2002C50.7291 67.2916 43.0478 69.9992 35.0664 70C33.8284 70 32.585 69.9346 31.3362 69.8038C25.1053 69.1482 19.2406 66.8684 14.2469 63.182L15.0048 65.8389C15.1703 66.4198 14.834 67.0246 14.2531 67.1908C14.1531 67.2192 14.0515 67.2331 13.9523 67.2331C13.476 67.2331 13.0382 66.9199 12.9012 66.439L11.1853 60.4243C11.093 60.1012 11.1546 59.7534 11.3523 59.481C11.5501 59.2086 11.8617 59.0432 12.1979 59.0309L18.4481 58.8062C19.0536 58.7831 19.5584 59.2563 19.5807 59.8596C19.6022 60.4636 19.1306 60.9699 18.5266 60.9914L15.1364 61.113C19.9039 64.7486 25.5523 66.9938 31.5647 67.6271C49.555 69.5214 65.734 56.4248 67.6276 38.4338C68.3624 31.4534 66.8889 24.5662 63.3672 18.5176C63.0632 17.9959 63.2402 17.3257 63.7619 17.0218C64.2843 16.7179 64.9538 16.8948 65.2577 17.4165C69.0156 23.8706 70.5876 31.2172 69.8035 38.6631Z" fill="url(#paint0_linear_29_243)"/>
<defs>
<linearGradient id="paint0_linear_29_243" x1="15" y1="20" x2="67" y2="72" gradientUnits="userSpaceOnUse">
<stop stop-color="#2799D5"/>
<stop offset="0.3" stop-color="#00A660"/>
<stop offset="0.65" stop-color="#FF7900"/>
<stop offset="1" stop-color="#FDC500"/>
</linearGradient>
</defs>
</svg>
